<svg xmlns="http://www.w3.org/2000/svg" xmlns:xlink="http://www.w3.org/1999/xlink" width="900" zoomAndPan="magnify" viewBox="0 0 675 449.999984" height="600" preserveAspectRatio="xMidYMid meet" version="1.0"><defs><clipPath id="93fb05310a"><path d="M 308.40625 43.707031 L 573 43.707031 L 573 266.457031 L 308.40625 266.457031 Z M 308.40625 43.707031 " clip-rule="nonzero"/></clipPath><clipPath id="f810cf14f1"><path d="M 359 122.726562 L 374 122.726562 L 374 138 L 359 138 Z M 359 122.726562 " clip-rule="nonzero"/></clipPath><clipPath id="4aef672198"><path d="M 343 154 L 377 154 L 377 187.226562 L 343 187.226562 Z M 343 154 " clip-rule="nonzero"/></clipPath><clipPath id="91a6933924"><path d="M 370 138 L 390.75 138 L 390.75 159 L 370 159 Z M 370 138 " clip-rule="nonzero"/></clipPath><clipPath id="e0ea47497c"><path d="M 337.5 154 L 340 154 L 340 156 L 337.5 156 Z M 337.5 154 " clip-rule="nonzero"/></clipPath></defs><g clip-path="url(#93fb05310a)"><path fill="#fdefd7" d="M 347.214844 258.023438 C 345.136719 256.984375 343.046875 256.0625 341.070312 254.941406 C 338.640625 253.570312 336.214844 252.144531 333.9375 250.539062 C 331.894531 249.097656 330.019531 247.410156 328.128906 245.765625 C 327.023438 244.796875 325.96875 243.742188 324.996094 242.636719 C 323.609375 241.03125 322.234375 239.40625 320.980469 237.679688 C 319.707031 235.921875 318.519531 234.082031 317.414062 232.207031 C 316.410156 230.515625 315.488281 228.757812 314.683594 226.984375 C 313.347656 224.019531 311.972656 221.058594 310.933594 217.992188 C 310.113281 215.597656 309.78125 213.054688 309.226562 210.578125 C 308.40625 206.828125 308.507812 203.027344 308.574219 199.226562 C 308.609375 197.902344 308.875 196.582031 309.078125 195.257812 C 309.210938 194.40625 309.378906 193.550781 309.5625 192.695312 C 309.828125 191.40625 310.082031 190.136719 310.398438 188.863281 C 310.867188 187.023438 311.371094 185.195312 311.90625 183.371094 C 312.175781 182.484375 312.558594 181.632812 312.894531 180.777344 C 313.914062 178.113281 315.085938 175.519531 316.628906 173.109375 C 317.832031 171.21875 318.9375 169.257812 320.191406 167.402344 C 321.5 165.476562 322.871094 163.566406 324.34375 161.757812 C 325.867188 159.867188 327.476562 157.992188 329.183594 156.265625 C 330.152344 155.296875 331.023438 154.257812 331.894531 153.21875 C 332.984375 151.914062 334.375 150.859375 335.5625 149.636719 C 337.269531 147.878906 339.027344 146.15625 340.566406 144.265625 C 342.308594 142.136719 343.964844 139.910156 345.40625 137.566406 C 346.59375 135.625 347.480469 133.464844 348.351562 131.355469 C 349.089844 129.597656 349.640625 127.757812 350.226562 125.933594 C 350.460938 125.179688 350.5625 124.390625 350.710938 123.621094 C 350.898438 122.667969 351.0625 121.695312 351.230469 120.742188 C 351.398438 119.769531 351.53125 118.800781 351.71875 117.847656 C 351.917969 116.757812 352.136719 115.6875 352.351562 114.597656 C 352.371094 114.546875 352.371094 114.496094 352.371094 114.449219 C 352.488281 112.875 352.554688 111.300781 352.722656 109.726562 C 352.90625 107.867188 353.15625 106.007812 353.375 104.152344 C 353.492188 103.195312 353.542969 102.226562 353.726562 101.273438 C 354.078125 99.398438 354.34375 97.472656 354.929688 95.664062 C 355.652344 93.46875 356.503906 91.277344 357.609375 89.25 C 358.683594 87.292969 360.054688 85.46875 361.476562 83.742188 C 363.519531 81.265625 366.082031 79.273438 368.59375 77.296875 C 370.316406 75.941406 372.242188 74.820312 374.101562 73.648438 C 375.355469 72.863281 376.660156 72.175781 377.96875 71.457031 C 379.375 70.683594 380.730469 69.765625 382.21875 69.179688 C 384.949219 68.105469 387.761719 67.1875 390.558594 66.265625 C 392.113281 65.761719 393.6875 65.292969 395.277344 64.960938 C 397.289062 64.539062 399.347656 64.273438 401.371094 63.90625 C 402.292969 63.738281 403.214844 63.484375 404.136719 63.285156 C 404.21875 63.269531 404.285156 63.25 404.371094 63.25 C 406.160156 63.132812 407.953125 63.015625 409.761719 62.917969 C 411.636719 62.800781 413.527344 62.566406 415.402344 62.617188 C 417.378906 62.683594 419.351562 63.035156 421.3125 63.25 C 421.613281 63.285156 421.929688 63.269531 422.234375 63.25 C 424.257812 63.167969 426.183594 63.636719 428.109375 64.207031 C 429.546875 64.625 431.089844 64.726562 432.578125 64.925781 C 434.46875 65.175781 436.34375 65.394531 438.238281 65.59375 C 438.738281 65.644531 439.242188 65.59375 439.742188 65.59375 C 441.46875 65.59375 443.210938 65.664062 444.933594 65.578125 C 446.171875 65.511719 447.394531 65.210938 448.617188 65.007812 C 448.71875 64.992188 448.816406 64.925781 448.917969 64.941406 C 450.375 65.027344 451.746094 64.507812 453.171875 64.324219 C 454.996094 64.089844 456.703125 63.601562 458.394531 62.949219 C 460.101562 62.28125 461.808594 61.609375 463.484375 60.875 C 465.339844 60.054688 467.199219 59.167969 469.007812 58.246094 C 470.617188 57.410156 472.121094 56.355469 473.78125 55.601562 C 476.089844 54.546875 478.515625 53.710938 480.859375 52.703125 C 482.300781 52.085938 483.691406 51.332031 485.113281 50.644531 C 485.699219 50.359375 486.285156 50.125 486.886719 49.875 C 489.316406 48.886719 491.726562 47.816406 494.203125 46.929688 C 496.480469 46.125 498.773438 45.339844 501.136719 44.902344 C 503.914062 44.382812 506.691406 43.765625 509.589844 43.816406 C 511.5 43.847656 513.339844 44.148438 515.164062 44.550781 C 517.125 45.003906 519.015625 45.722656 520.941406 46.359375 C 523.167969 47.097656 525.210938 48.25 527.167969 49.492188 C 529.34375 50.878906 531.304688 52.503906 533.277344 54.179688 C 536.460938 56.855469 538.769531 60.171875 540.847656 63.6875 C 542.019531 65.664062 543.089844 67.722656 544.027344 69.816406 C 545.199219 72.460938 546.253906 75.136719 547.207031 77.867188 C 547.894531 79.84375 548.347656 81.917969 548.914062 83.945312 C 549.484375 85.96875 550.085938 87.980469 550.621094 90.019531 C 551.007812 91.496094 551.242188 93 551.59375 94.476562 C 552.246094 97.152344 552.933594 99.832031 553.601562 102.511719 C 554.003906 104.132812 554.355469 105.773438 554.792969 107.382812 C 555.546875 110.195312 556.296875 113.007812 557.136719 115.785156 C 558.191406 119.269531 559.296875 122.75 560.484375 126.199219 C 561.824219 130.101562 563.28125 133.96875 564.652344 137.867188 C 566.359375 142.691406 568.117188 147.496094 569.707031 152.351562 C 570.378906 154.375 570.710938 156.519531 571.164062 158.613281 C 571.515625 160.253906 571.882812 161.894531 572.152344 163.550781 C 572.335938 164.722656 572.453125 165.910156 572.488281 167.097656 C 572.621094 171.015625 572.804688 174.933594 572.789062 178.851562 C 572.789062 180.492188 572.371094 182.132812 572.152344 183.757812 C 572.136719 183.890625 572.167969 184.042969 572.152344 184.175781 C 571.933594 185.53125 571.71875 186.90625 571.5 188.261719 C 571.28125 189.582031 571.0625 190.921875 570.8125 192.246094 C 570.261719 195.324219 569.339844 198.304688 568.320312 201.253906 C 567.5 203.597656 566.527344 205.855469 565.539062 208.132812 C 563.964844 211.78125 561.972656 215.179688 559.730469 218.460938 C 557.988281 221.023438 555.996094 223.351562 553.71875 225.410156 C 551.8125 227.152344 549.785156 228.792969 547.742188 230.382812 C 546.101562 231.671875 544.429688 232.960938 542.636719 234.015625 C 540.445312 235.320312 538.152344 236.476562 535.808594 237.53125 C 534 238.351562 532.105469 238.988281 530.199219 239.554688 C 527.132812 240.460938 524.054688 241.296875 520.941406 242.066406 C 519.300781 242.46875 517.609375 242.855469 515.933594 242.855469 C 514.59375 242.855469 513.355469 243.441406 512.035156 243.257812 C 511.027344 243.121094 510.074219 243.558594 509.136719 243.539062 C 506.859375 243.507812 504.632812 243.84375 502.390625 243.910156 C 500.046875 243.976562 497.6875 244.078125 495.359375 243.875 C 493.167969 243.691406 490.921875 243.84375 488.761719 243.257812 C 488.730469 243.257812 488.710938 243.257812 488.679688 243.257812 C 486.9375 243.140625 485.195312 243.070312 483.457031 242.90625 C 481.832031 242.738281 480.242188 242.46875 478.617188 242.25 C 477.613281 242.117188 476.59375 242.050781 475.570312 241.898438 C 474.179688 241.699219 472.792969 241.449219 471.417969 241.246094 C 470.546875 241.113281 469.679688 240.996094 468.789062 240.914062 C 467.367188 240.777344 465.910156 240.761719 464.488281 240.5625 C 461.742188 240.160156 458.996094 240.210938 456.25 240.257812 C 454.292969 240.292969 452.316406 240.375 450.359375 240.609375 C 448.316406 240.84375 446.289062 241.296875 444.246094 241.582031 C 439.792969 242.183594 435.457031 243.273438 431.222656 244.796875 C 428.996094 245.601562 426.785156 246.488281 424.625 247.476562 C 421.246094 249.03125 417.914062 250.65625 414.582031 252.332031 C 412.90625 253.167969 411.332031 254.1875 409.691406 255.074219 C 407.800781 256.113281 405.925781 257.136719 404 258.089844 C 400.617188 259.761719 397.21875 261.355469 393.722656 262.761719 C 390.539062 264.03125 387.257812 264.851562 383.960938 265.671875 C 382.789062 265.957031 381.535156 265.992188 380.3125 266.023438 C 378.46875 266.074219 376.628906 266.007812 374.785156 266.042969 C 372.726562 266.074219 370.71875 265.789062 368.691406 265.40625 C 365.460938 264.769531 362.246094 264.082031 359.132812 263.011719 C 357.125 262.324219 355.148438 261.605469 353.191406 260.800781 C 351.28125 259.949219 349.289062 258.976562 347.214844 258.023438 Z M 347.214844 258.023438 " fill-opacity="1" fill-rule="nonzero"/></g><path fill="#ffa600" d="M 236.460938 209.84375 L 240.203125 209.84375 L 240.203125 146.226562 C 240.203125 145.488281 240.273438 144.757812 240.417969 144.035156 C 240.5625 143.3125 240.773438 142.613281 241.058594 141.929688 C 241.339844 141.25 241.683594 140.601562 242.09375 139.988281 C 242.503906 139.375 242.96875 138.808594 243.492188 138.289062 C 244.011719 137.765625 244.578125 137.300781 245.191406 136.890625 C 245.804688 136.484375 246.453125 136.136719 247.132812 135.855469 C 247.8125 135.574219 248.515625 135.359375 249.238281 135.214844 C 249.960938 135.070312 250.691406 135 251.429688 135 L 273.882812 135 C 274.621094 135 275.351562 135.070312 276.074219 135.214844 C 276.796875 135.359375 277.496094 135.574219 278.179688 135.855469 C 278.859375 136.136719 279.507812 136.484375 280.121094 136.890625 C 280.734375 137.300781 281.300781 137.765625 281.820312 138.289062 C 282.34375 138.808594 282.808594 139.375 283.21875 139.988281 C 283.625 140.601562 283.972656 141.25 284.253906 141.929688 C 284.535156 142.613281 284.75 143.3125 284.894531 144.035156 C 285.039062 144.757812 285.109375 145.488281 285.109375 146.226562 L 285.109375 150.304688 C 286.40625 150.527344 287.671875 150.855469 288.910156 151.300781 C 290.148438 151.742188 291.339844 152.289062 292.480469 152.941406 C 293.625 153.59375 294.699219 154.339844 295.710938 155.179688 C 296.722656 156.019531 297.652344 156.941406 298.503906 157.945312 C 299.351562 158.949219 300.109375 160.019531 300.769531 161.15625 C 301.429688 162.292969 301.988281 163.480469 302.441406 164.714844 C 302.894531 165.949219 303.238281 167.214844 303.46875 168.507812 C 303.699219 169.800781 303.816406 171.105469 303.820312 172.421875 L 303.820312 176.164062 C 303.820312 176.660156 303.726562 177.136719 303.535156 177.597656 C 303.34375 178.054688 303.074219 178.460938 302.722656 178.808594 C 302.375 179.160156 301.96875 179.433594 301.511719 179.621094 C 301.050781 179.8125 300.574219 179.90625 300.078125 179.90625 L 262.65625 179.90625 C 262.160156 179.90625 261.683594 179.8125 261.222656 179.621094 C 260.765625 179.433594 260.359375 179.160156 260.011719 178.808594 C 259.660156 178.460938 259.386719 178.054688 259.199219 177.597656 C 259.007812 177.136719 258.914062 176.660156 258.914062 176.164062 L 258.914062 172.421875 C 258.917969 171.105469 259.03125 169.800781 259.265625 168.507812 C 259.496094 167.214844 259.839844 165.949219 260.292969 164.714844 C 260.746094 163.480469 261.304688 162.292969 261.964844 161.15625 C 262.625 160.019531 263.382812 158.949219 264.230469 157.945312 C 265.078125 156.941406 266.011719 156.019531 267.023438 155.179688 C 268.03125 154.339844 269.109375 153.59375 270.25 152.941406 C 271.394531 152.289062 272.585938 151.742188 273.824219 151.300781 C 275.0625 150.855469 276.328125 150.527344 277.625 150.304688 L 277.625 146.226562 C 277.625 145.730469 277.53125 145.253906 277.339844 144.792969 C 277.148438 144.335938 276.878906 143.929688 276.527344 143.582031 C 276.179688 143.230469 275.773438 142.960938 275.316406 142.769531 C 274.855469 142.578125 274.378906 142.484375 273.882812 142.484375 L 251.429688 142.484375 C 250.933594 142.484375 250.457031 142.578125 249.996094 142.769531 C 249.539062 142.960938 249.132812 143.230469 248.785156 143.582031 C 248.433594 143.929688 248.160156 144.335938 247.972656 144.792969 C 247.78125 145.253906 247.6875 145.730469 247.6875 146.226562 L 247.6875 209.84375 L 360.640625 209.84375 C 361.027344 208.753906 361.570312 207.746094 362.265625 206.824219 C 362.960938 205.898438 363.78125 205.101562 364.726562 204.433594 C 365.667969 203.761719 366.691406 203.25 367.792969 202.898438 C 368.894531 202.542969 370.023438 202.363281 371.179688 202.359375 L 401.117188 202.359375 C 402.273438 202.363281 403.402344 202.542969 404.503906 202.898438 C 405.605469 203.25 406.628906 203.761719 407.570312 204.433594 C 408.515625 205.101562 409.335938 205.898438 410.03125 206.824219 C 410.730469 207.746094 411.269531 208.753906 411.65625 209.84375 L 438.539062 209.84375 C 439.277344 209.847656 440.003906 209.921875 440.726562 210.070312 C 441.445312 210.21875 442.148438 210.433594 442.824219 210.714844 C 443.503906 211 444.148438 211.347656 444.761719 211.753906 C 445.375 212.164062 445.9375 212.628906 446.460938 213.152344 C 446.980469 213.671875 447.445312 214.238281 447.855469 214.847656 C 448.265625 215.460938 448.609375 216.105469 448.894531 216.785156 C 449.179688 217.464844 449.394531 218.164062 449.539062 218.886719 C 449.6875 219.605469 449.761719 220.335938 449.765625 221.070312 C 449.761719 222.226562 449.582031 223.355469 449.226562 224.457031 C 448.875 225.558594 448.363281 226.582031 447.691406 227.523438 C 447.023438 228.46875 446.226562 229.289062 445.304688 229.984375 C 444.378906 230.683594 443.371094 231.222656 442.28125 231.609375 L 442.28125 265.976562 C 442.28125 267.839844 442.152344 269.695312 441.898438 271.539062 C 441.644531 273.386719 441.269531 275.207031 440.769531 277 C 440.265625 278.792969 439.648438 280.546875 438.910156 282.257812 C 438.171875 283.96875 437.320312 285.621094 436.359375 287.214844 C 435.394531 288.808594 434.332031 290.332031 433.160156 291.785156 C 431.992188 293.234375 430.730469 294.597656 429.375 295.878906 C 428.023438 297.15625 426.585938 298.339844 425.074219 299.421875 C 423.558594 300.507812 421.976562 301.484375 420.328125 302.355469 L 426.214844 308.238281 C 426.578125 308.585938 426.855469 308.992188 427.054688 309.453125 C 427.253906 309.914062 427.355469 310.394531 427.359375 310.898438 C 427.363281 311.398438 427.269531 311.882812 427.082031 312.347656 C 426.890625 312.8125 426.617188 313.21875 426.261719 313.574219 C 425.90625 313.929688 425.5 314.203125 425.035156 314.394531 C 424.570312 314.582031 424.085938 314.675781 423.585938 314.671875 C 423.082031 314.667969 422.601562 314.566406 422.140625 314.367188 C 421.679688 314.167969 421.273438 313.890625 420.925781 313.53125 L 414.238281 306.84375 C 413.8125 306.398438 413.515625 305.878906 413.351562 305.285156 C 409.367188 306.527344 405.289062 307.144531 401.117188 307.140625 L 273.882812 307.140625 C 269.835938 307.140625 265.878906 306.554688 262.003906 305.378906 C 261.878906 305.617188 261.730469 305.839844 261.558594 306.042969 L 254.125 313.480469 C 253.769531 313.820312 253.367188 314.082031 252.910156 314.265625 C 252.457031 314.445312 251.980469 314.535156 251.492188 314.53125 C 251 314.527344 250.527344 314.429688 250.078125 314.238281 C 249.625 314.050781 249.222656 313.78125 248.878906 313.433594 C 248.53125 313.089844 248.261719 312.6875 248.074219 312.234375 C 247.882812 311.785156 247.785156 311.3125 247.78125 310.820312 C 247.777344 310.332031 247.867188 309.859375 248.046875 309.402344 C 248.230469 308.945312 248.492188 308.542969 248.832031 308.1875 L 254.667969 302.355469 C 253.019531 301.484375 251.4375 300.507812 249.925781 299.421875 C 248.410156 298.339844 246.976562 297.15625 245.621094 295.875 C 244.265625 294.597656 243.007812 293.234375 241.835938 291.78125 C 240.667969 290.332031 239.601562 288.808594 238.640625 287.214844 C 237.679688 285.621094 236.828125 283.964844 236.089844 282.257812 C 235.351562 280.546875 234.730469 278.792969 234.230469 277 C 233.730469 275.203125 233.355469 273.386719 233.101562 271.539062 C 232.847656 269.695312 232.71875 267.839844 232.71875 265.976562 L 232.71875 231.621094 C 231.132812 231.082031 229.753906 230.214844 228.574219 229.027344 C 227.5 227.984375 226.671875 226.773438 226.089844 225.390625 C 225.511719 224.007812 225.226562 222.570312 225.234375 221.070312 C 225.234375 220.332031 225.304688 219.601562 225.449219 218.878906 C 225.59375 218.15625 225.804688 217.457031 226.089844 216.773438 C 226.371094 216.09375 226.714844 215.445312 227.125 214.832031 C 227.535156 214.21875 228 213.652344 228.523438 213.132812 C 229.042969 212.609375 229.609375 212.144531 230.222656 211.734375 C 230.835938 211.328125 231.484375 210.980469 232.164062 210.699219 C 232.84375 210.417969 233.546875 210.203125 234.269531 210.058594 C 234.992188 209.914062 235.722656 209.84375 236.460938 209.84375 Z M 266.398438 172.421875 L 296.335938 172.421875 C 296.335938 171.4375 296.238281 170.464844 296.046875 169.5 C 295.855469 168.539062 295.574219 167.601562 295.195312 166.695312 C 294.820312 165.785156 294.359375 164.921875 293.8125 164.105469 C 293.265625 163.289062 292.648438 162.53125 291.953125 161.835938 C 291.257812 161.140625 290.5 160.523438 289.683594 159.976562 C 288.867188 159.429688 288.003906 158.96875 287.09375 158.59375 C 286.1875 158.214844 285.25 157.933594 284.289062 157.742188 C 283.324219 157.550781 282.351562 157.453125 281.367188 157.453125 C 280.382812 157.453125 279.410156 157.550781 278.445312 157.742188 C 277.484375 157.933594 276.546875 158.214844 275.636719 158.59375 C 274.730469 158.96875 273.867188 159.429688 273.050781 159.976562 C 272.234375 160.523438 271.476562 161.140625 270.78125 161.835938 C 270.085938 162.53125 269.46875 163.289062 268.921875 164.105469 C 268.375 164.921875 267.914062 165.785156 267.539062 166.695312 C 267.160156 167.601562 266.878906 168.539062 266.6875 169.5 C 266.492188 170.464844 266.398438 171.4375 266.398438 172.421875 Z M 404.859375 213.585938 C 404.859375 213.089844 404.765625 212.613281 404.574219 212.152344 C 404.386719 211.695312 404.113281 211.292969 403.761719 210.941406 C 403.414062 210.589844 403.007812 210.320312 402.550781 210.128906 C 402.089844 209.9375 401.613281 209.84375 401.117188 209.84375 L 371.179688 209.84375 C 370.683594 209.84375 370.207031 209.9375 369.746094 210.128906 C 369.289062 210.320312 368.882812 210.589844 368.535156 210.941406 C 368.183594 211.292969 367.914062 211.695312 367.722656 212.152344 C 367.53125 212.613281 367.4375 213.089844 367.4375 213.585938 L 367.4375 247.265625 L 404.859375 247.265625 Z M 404.859375 254.75 L 367.4375 254.75 L 367.4375 262.234375 L 404.859375 262.234375 Z M 442.28125 221.070312 C 442.285156 220.019531 441.902344 219.128906 441.136719 218.40625 C 440.425781 217.675781 439.558594 217.316406 438.539062 217.328125 L 412.34375 217.328125 L 412.34375 224.8125 L 438.539062 224.8125 C 439.035156 224.8125 439.511719 224.71875 439.972656 224.527344 C 440.429688 224.339844 440.835938 224.066406 441.1875 223.71875 C 441.535156 223.367188 441.808594 222.960938 441.996094 222.503906 C 442.1875 222.042969 442.28125 221.566406 442.28125 221.070312 Z M 240.203125 265.976562 C 240.203125 267.078125 240.257812 268.179688 240.367188 269.277344 C 240.476562 270.375 240.640625 271.464844 240.855469 272.546875 C 241.070312 273.625 241.339844 274.695312 241.660156 275.75 C 241.980469 276.804688 242.355469 277.839844 242.777344 278.859375 C 243.199219 279.878906 243.671875 280.875 244.191406 281.847656 C 244.710938 282.820312 245.277344 283.761719 245.890625 284.679688 C 246.503906 285.597656 247.160156 286.480469 247.859375 287.332031 C 248.558594 288.1875 249.296875 289 250.078125 289.78125 C 250.859375 290.5625 251.675781 291.300781 252.527344 292 C 253.378906 292.699219 254.261719 293.355469 255.179688 293.96875 C 256.097656 294.582031 257.042969 295.148438 258.011719 295.667969 C 258.984375 296.1875 259.980469 296.660156 261 297.082031 C 262.019531 297.503906 263.054688 297.878906 264.109375 298.199219 C 265.164062 298.519531 266.234375 298.789062 267.316406 299.003906 C 268.394531 299.21875 269.484375 299.382812 270.582031 299.492188 C 271.679688 299.601562 272.78125 299.65625 273.882812 299.65625 L 401.117188 299.65625 C 402.21875 299.65625 403.320312 299.601562 404.417969 299.492188 C 405.515625 299.382812 406.605469 299.21875 407.683594 299.003906 C 408.765625 298.789062 409.835938 298.519531 410.890625 298.199219 C 411.945312 297.878906 412.980469 297.503906 414 297.082031 C 415.019531 296.660156 416.015625 296.1875 416.988281 295.667969 C 417.957031 295.148438 418.902344 294.582031 419.820312 293.96875 C 420.738281 293.355469 421.621094 292.699219 422.472656 292 C 423.324219 291.300781 424.140625 290.5625 424.921875 289.78125 C 425.703125 289 426.441406 288.1875 427.140625 287.332031 C 427.839844 286.480469 428.496094 285.597656 429.109375 284.679688 C 429.722656 283.761719 430.289062 282.820312 430.808594 281.847656 C 431.328125 280.875 431.800781 279.878906 432.222656 278.859375 C 432.644531 277.839844 433.019531 276.804688 433.339844 275.75 C 433.660156 274.695312 433.929688 273.625 434.144531 272.546875 C 434.359375 271.464844 434.523438 270.375 434.632812 269.277344 C 434.742188 268.179688 434.796875 267.078125 434.796875 265.976562 L 434.796875 232.296875 L 412.34375 232.296875 L 412.34375 265.976562 C 412.34375 266.472656 412.25 266.949219 412.058594 267.410156 C 411.871094 267.867188 411.597656 268.273438 411.246094 268.625 C 410.898438 268.972656 410.492188 269.246094 410.035156 269.433594 C 409.574219 269.625 409.097656 269.71875 408.601562 269.71875 L 363.695312 269.71875 C 363.199219 269.71875 362.722656 269.625 362.261719 269.433594 C 361.804688 269.246094 361.398438 268.972656 361.050781 268.625 C 360.699219 268.273438 360.429688 267.867188 360.238281 267.410156 C 360.046875 266.949219 359.953125 266.472656 359.953125 265.976562 L 359.953125 232.296875 L 240.203125 232.296875 Z M 233.863281 223.734375 C 234.574219 224.464844 235.441406 224.824219 236.460938 224.8125 L 359.953125 224.8125 L 359.953125 217.328125 L 236.460938 217.328125 C 235.964844 217.328125 235.488281 217.421875 235.027344 217.613281 C 234.570312 217.804688 234.164062 218.074219 233.8125 218.425781 C 233.464844 218.777344 233.191406 219.179688 233.003906 219.636719 C 232.8125 220.097656 232.71875 220.574219 232.71875 221.070312 C 232.714844 222.125 233.097656 223.011719 233.863281 223.734375 Z M 233.863281 223.734375 " fill-opacity="1" fill-rule="nonzero"/><g clip-path="url(#f810cf14f1)"><path fill="#ffa600" d="M 366.480469 122.726562 C 368.511719 122.726562 370.355469 123.550781 371.6875 124.882812 C 373.023438 126.214844 373.847656 128.058594 373.847656 130.09375 C 373.847656 132.128906 373.023438 133.96875 371.6875 135.304688 C 370.355469 136.636719 368.511719 137.460938 366.480469 137.460938 C 364.445312 137.460938 362.601562 136.636719 361.269531 135.304688 C 359.9375 133.96875 359.113281 132.128906 359.113281 130.09375 C 359.113281 128.058594 359.9375 126.214844 361.269531 124.882812 C 362.601562 123.550781 364.445312 122.726562 366.480469 122.726562 Z M 370.34375 126.226562 C 369.355469 125.234375 367.988281 124.625 366.480469 124.625 C 364.964844 124.625 363.601562 125.234375 362.609375 126.226562 C 361.621094 127.214844 361.011719 128.582031 361.011719 130.09375 C 361.011719 131.601562 361.621094 132.96875 362.609375 133.960938 C 363.601562 134.949219 364.964844 135.5625 366.480469 135.5625 C 367.988281 135.5625 369.355469 134.949219 370.34375 133.960938 C 371.335938 132.96875 371.949219 131.601562 371.949219 130.09375 C 371.949219 128.582031 371.332031 127.214844 370.34375 126.226562 Z M 370.34375 126.226562 " fill-opacity="1" fill-rule="nonzero"/></g><path fill="#ffa600" d="M 364.242188 130.09375 C 364.242188 130.617188 363.820312 131.042969 363.296875 131.042969 C 362.769531 131.042969 362.34375 130.617188 362.34375 130.09375 C 362.34375 128.953125 362.808594 127.917969 363.554688 127.167969 C 364.304688 126.421875 365.335938 125.957031 366.480469 125.957031 C 367.003906 125.957031 367.425781 126.386719 367.425781 126.910156 C 367.425781 127.433594 367.003906 127.859375 366.480469 127.859375 C 365.863281 127.859375 365.304688 128.105469 364.898438 128.511719 C 364.492188 128.917969 364.242188 129.476562 364.242188 130.09375 Z M 364.242188 130.09375 " fill-opacity="1" fill-rule="nonzero"/><g clip-path="url(#4aef672198)"><path fill="#ffa600" d="M 360.304688 154.503906 C 364.808594 154.503906 368.886719 156.332031 371.839844 159.28125 C 374.789062 162.234375 376.613281 166.3125 376.613281 170.816406 C 376.613281 175.316406 374.789062 179.394531 371.839844 182.347656 C 368.886719 185.300781 364.808594 187.125 360.304688 187.125 C 355.800781 187.125 351.722656 185.300781 348.773438 182.347656 C 345.824219 179.394531 343.996094 175.316406 343.996094 170.816406 C 343.996094 166.3125 345.824219 162.234375 348.773438 159.28125 C 351.722656 156.332031 355.800781 154.503906 360.304688 154.503906 Z M 370.496094 160.625 C 367.886719 158.015625 364.285156 156.402344 360.304688 156.402344 C 356.324219 156.402344 352.722656 158.015625 350.117188 160.625 C 347.507812 163.230469 345.894531 166.835938 345.894531 170.816406 C 345.894531 174.792969 347.507812 178.398438 350.117188 181.003906 C 352.722656 183.613281 356.324219 185.226562 360.304688 185.226562 C 364.285156 185.226562 367.886719 183.613281 370.496094 181.003906 C 373.101562 178.398438 374.714844 174.792969 374.714844 170.816406 C 374.714844 166.835938 373.101562 163.230469 370.496094 160.625 Z M 370.496094 160.625 " fill-opacity="1" fill-rule="nonzero"/></g><path fill="#ffa600" d="M 350.496094 168.183594 C 350.363281 168.691406 349.84375 168.992188 349.335938 168.859375 C 348.832031 168.722656 348.53125 168.203125 348.667969 167.699219 C 349.222656 165.617188 350.316406 163.761719 351.785156 162.292969 C 353.253906 160.824219 355.105469 159.734375 357.1875 159.175781 C 357.691406 159.039062 358.214844 159.339844 358.347656 159.847656 C 358.484375 160.351562 358.183594 160.875 357.679688 161.007812 C 355.929688 161.476562 354.367188 162.394531 353.128906 163.636719 C 351.886719 164.875 350.96875 166.4375 350.496094 168.183594 Z M 350.496094 168.183594 " fill-opacity="1" fill-rule="nonzero"/><g clip-path="url(#91a6933924)"><path fill="#ffa600" d="M 380.867188 138.445312 C 383.597656 138.445312 386.066406 139.554688 387.859375 141.34375 C 389.644531 143.128906 390.753906 145.601562 390.753906 148.332031 C 390.753906 151.0625 389.644531 153.535156 387.859375 155.324219 C 386.066406 157.113281 383.597656 158.21875 380.867188 158.21875 C 378.136719 158.21875 375.667969 157.113281 373.875 155.324219 C 372.085938 153.535156 370.980469 151.0625 370.980469 148.332031 C 370.980469 145.601562 372.085938 143.128906 373.875 141.34375 C 375.667969 139.554688 378.136719 138.445312 380.867188 138.445312 Z M 386.515625 142.683594 C 385.070312 141.238281 383.070312 140.347656 380.867188 140.347656 C 378.664062 140.347656 376.664062 141.238281 375.21875 142.683594 C 373.773438 144.128906 372.878906 146.125 372.878906 148.332031 C 372.878906 150.539062 373.773438 152.535156 375.21875 153.980469 C 376.664062 155.425781 378.664062 156.320312 380.867188 156.320312 C 383.070312 156.320312 385.070312 155.425781 386.515625 153.980469 C 387.957031 152.535156 388.855469 150.539062 388.855469 148.332031 C 388.855469 146.125 387.957031 144.128906 386.515625 142.683594 Z M 386.515625 142.683594 " fill-opacity="1" fill-rule="nonzero"/></g><path fill="#ffa600" d="M 376.421875 147.140625 C 376.285156 147.644531 375.765625 147.945312 375.261719 147.8125 C 374.753906 147.675781 374.457031 147.15625 374.589844 146.652344 C 374.96875 145.230469 375.804688 144.023438 376.914062 143.175781 C 378.019531 142.328125 379.398438 141.832031 380.867188 141.832031 C 381.390625 141.832031 381.816406 142.257812 381.816406 142.78125 C 381.816406 143.308594 381.390625 143.730469 380.867188 143.730469 C 379.824219 143.730469 378.847656 144.082031 378.0625 144.683594 C 377.28125 145.28125 376.691406 146.132812 376.421875 147.140625 Z M 376.421875 147.140625 " fill-opacity="1" fill-rule="nonzero"/><path fill="#ffa600" d="M 385.332031 164.730469 C 386.460938 164.730469 387.484375 165.191406 388.226562 165.933594 C 388.964844 166.671875 389.425781 167.695312 389.425781 168.824219 C 389.425781 169.953125 388.964844 170.976562 388.226562 171.71875 L 388.222656 171.71875 C 387.480469 172.460938 386.460938 172.921875 385.332031 172.921875 C 384.203125 172.921875 383.179688 172.460938 382.4375 171.71875 C 381.695312 170.980469 381.238281 169.957031 381.238281 168.824219 C 381.238281 167.699219 381.695312 166.679688 382.4375 165.933594 L 382.445312 165.925781 C 383.183594 165.1875 384.207031 164.730469 385.332031 164.730469 Z M 386.882812 167.273438 C 386.484375 166.878906 385.9375 166.632812 385.332031 166.632812 C 384.722656 166.632812 384.175781 166.875 383.78125 167.269531 L 383.773438 167.273438 C 383.378906 167.667969 383.136719 168.21875 383.136719 168.824219 C 383.136719 169.433594 383.382812 169.980469 383.78125 170.378906 C 384.175781 170.773438 384.726562 171.019531 385.332031 171.019531 C 385.9375 171.019531 386.488281 170.777344 386.882812 170.378906 C 387.28125 169.984375 387.527344 169.433594 387.527344 168.824219 C 387.527344 168.21875 387.277344 167.671875 386.882812 167.273438 Z M 386.882812 167.273438 " fill-opacity="1" fill-rule="nonzero"/><path fill="#ffa600" d="M 352.941406 141.480469 C 354.070312 141.480469 355.09375 141.941406 355.835938 142.679688 C 356.574219 143.421875 357.03125 144.445312 357.03125 145.574219 C 357.03125 146.703125 356.574219 147.722656 355.835938 148.464844 L 355.828125 148.46875 C 355.089844 149.210938 354.066406 149.667969 352.941406 149.667969 C 351.808594 149.667969 350.785156 149.210938 350.046875 148.46875 C 349.304688 147.730469 348.847656 146.707031 348.847656 145.574219 C 348.847656 144.449219 349.304688 143.425781 350.046875 142.683594 L 350.050781 142.675781 C 350.796875 141.941406 351.816406 141.480469 352.941406 141.480469 Z M 354.492188 144.023438 C 354.09375 143.625 353.546875 143.378906 352.941406 143.378906 C 352.332031 143.378906 351.78125 143.625 351.386719 144.019531 L 351.386719 144.023438 C 350.992188 144.417969 350.746094 144.964844 350.746094 145.574219 C 350.746094 146.183594 350.992188 146.730469 351.386719 147.128906 C 351.785156 147.523438 352.332031 147.769531 352.941406 147.769531 C 353.546875 147.769531 354.09375 147.523438 354.492188 147.128906 C 354.890625 146.730469 355.132812 146.183594 355.132812 145.574219 C 355.132812 144.96875 354.890625 144.417969 354.492188 144.023438 Z M 354.492188 144.023438 " fill-opacity="1" fill-rule="nonzero"/><path fill="#ffa600" d="M 364.234375 142.671875 C 364.234375 142.378906 364.472656 142.140625 364.765625 142.140625 C 365.054688 142.140625 365.292969 142.378906 365.292969 142.671875 L 365.292969 144.070312 C 365.292969 144.363281 365.054688 144.597656 364.765625 144.597656 C 364.472656 144.597656 364.234375 144.363281 364.234375 144.070312 Z M 364.234375 142.671875 " fill-opacity="1" fill-rule="nonzero"/><path fill="#ffa600" d="M 367.632812 145.007812 C 367.921875 145.007812 368.160156 145.242188 368.160156 145.539062 C 368.160156 145.828125 367.921875 146.066406 367.632812 146.066406 L 366.230469 146.066406 C 365.941406 146.066406 365.703125 145.828125 365.703125 145.539062 C 365.703125 145.242188 365.941406 145.007812 366.230469 145.007812 Z M 367.632812 145.007812 " fill-opacity="1" fill-rule="nonzero"/><path fill="#ffa600" d="M 365.292969 148.402344 C 365.292969 148.695312 365.054688 148.933594 364.765625 148.933594 C 364.472656 148.933594 364.234375 148.695312 364.234375 148.402344 L 364.234375 147.003906 C 364.234375 146.710938 364.472656 146.476562 364.765625 146.476562 C 365.054688 146.476562 365.292969 146.710938 365.292969 147.003906 Z M 365.292969 148.402344 " fill-opacity="1" fill-rule="nonzero"/><path fill="#ffa600" d="M 361.898438 146.066406 C 361.605469 146.066406 361.367188 145.828125 361.367188 145.539062 C 361.367188 145.242188 361.605469 145.007812 361.898438 145.007812 L 363.296875 145.007812 C 363.589844 145.007812 363.828125 145.242188 363.828125 145.539062 C 363.828125 145.828125 363.589844 146.066406 363.296875 146.066406 Z M 361.898438 146.066406 " fill-opacity="1" fill-rule="nonzero"/><path fill="#ffa600" d="M 367.632812 145.007812 C 367.921875 145.007812 368.160156 145.242188 368.160156 145.539062 C 368.160156 145.828125 367.921875 146.066406 367.632812 146.066406 L 366.230469 146.066406 C 365.941406 146.066406 365.703125 145.828125 365.703125 145.539062 C 365.703125 145.242188 365.941406 145.007812 366.230469 145.007812 Z M 367.632812 145.007812 " fill-opacity="1" fill-rule="nonzero"/><path fill="#ffa600" d="M 340.398438 152.273438 C 340.398438 151.980469 340.636719 151.742188 340.929688 151.742188 C 341.21875 151.742188 341.457031 151.980469 341.457031 152.273438 L 341.457031 153.671875 C 341.457031 153.964844 341.21875 154.203125 340.929688 154.203125 C 340.636719 154.203125 340.398438 153.964844 340.398438 153.671875 Z M 340.398438 152.273438 " fill-opacity="1" fill-rule="nonzero"/><path fill="#ffa600" d="M 343.796875 154.609375 C 344.085938 154.609375 344.324219 154.847656 344.324219 155.140625 C 344.324219 155.433594 344.085938 155.667969 343.796875 155.667969 L 342.394531 155.667969 C 342.105469 155.667969 341.867188 155.433594 341.867188 155.140625 C 341.867188 154.847656 342.105469 154.609375 342.394531 154.609375 Z M 343.796875 154.609375 " fill-opacity="1" fill-rule="nonzero"/><path fill="#ffa600" d="M 341.457031 158.007812 C 341.457031 158.300781 341.21875 158.535156 340.929688 158.535156 C 340.636719 158.535156 340.398438 158.300781 340.398438 158.007812 L 340.398438 156.609375 C 340.398438 156.316406 340.636719 156.078125 340.929688 156.078125 C 341.21875 156.078125 341.457031 156.316406 341.457031 156.609375 Z M 341.457031 158.007812 " fill-opacity="1" fill-rule="nonzero"/><g clip-path="url(#e0ea47497c)"><path fill="#ffa600" d="M 338.0625 155.667969 C 337.769531 155.667969 337.53125 155.433594 337.53125 155.140625 C 337.53125 154.847656 337.769531 154.609375 338.0625 154.609375 L 339.460938 154.609375 C 339.753906 154.609375 339.988281 154.847656 339.988281 155.140625 C 339.988281 155.433594 339.753906 155.667969 339.460938 155.667969 Z M 338.0625 155.667969 " fill-opacity="1" fill-rule="nonzero"/></g><path fill="#ffa600" d="M 343.796875 154.609375 C 344.085938 154.609375 344.324219 154.847656 344.324219 155.140625 C 344.324219 155.433594 344.085938 155.667969 343.796875 155.667969 L 342.394531 155.667969 C 342.105469 155.667969 341.867188 155.433594 341.867188 155.140625 C 341.867188 154.847656 342.105469 154.609375 342.394531 154.609375 Z M 343.796875 154.609375 " fill-opacity="1" fill-rule="nonzero"/><path fill="#ffa600" d="M 380.476562 178.941406 C 380.476562 178.652344 380.710938 178.414062 381.003906 178.414062 C 381.292969 178.414062 381.53125 178.652344 381.53125 178.941406 L 381.53125 180.34375 C 381.53125 180.632812 381.292969 180.871094 381.003906 180.871094 C 380.710938 180.871094 380.476562 180.632812 380.476562 180.34375 Z M 380.476562 178.941406 " fill-opacity="1" fill-rule="nonzero"/><path fill="#ffa600" d="M 383.871094 181.28125 C 384.160156 181.28125 384.398438 181.519531 384.398438 181.808594 C 384.398438 182.101562 384.160156 182.339844 383.871094 182.339844 L 382.46875 182.339844 C 382.179688 182.339844 381.941406 182.101562 381.941406 181.808594 C 381.941406 181.519531 382.179688 181.28125 382.46875 181.28125 Z M 383.871094 181.28125 " fill-opacity="1" fill-rule="nonzero"/><path fill="#ffa600" d="M 381.53125 184.675781 C 381.53125 184.96875 381.292969 185.207031 381.003906 185.207031 C 380.710938 185.207031 380.476562 184.96875 380.476562 184.675781 L 380.476562 183.277344 C 380.476562 182.984375 380.710938 182.746094 381.003906 182.746094 C 381.292969 182.746094 381.53125 182.984375 381.53125 183.277344 Z M 381.53125 184.675781 " fill-opacity="1" fill-rule="nonzero"/><path fill="#ffa600" d="M 378.136719 182.339844 C 377.84375 182.339844 377.609375 182.101562 377.609375 181.808594 C 377.609375 181.519531 377.84375 181.28125 378.136719 181.28125 L 379.535156 181.28125 C 379.828125 181.28125 380.066406 181.519531 380.066406 181.808594 C 380.066406 182.101562 379.828125 182.339844 379.535156 182.339844 Z M 378.136719 182.339844 " fill-opacity="1" fill-rule="nonzero"/><path fill="#ffa600" d="M 383.871094 181.28125 C 384.160156 181.28125 384.398438 181.519531 384.398438 181.808594 C 384.398438 182.101562 384.160156 182.339844 383.871094 182.339844 L 382.46875 182.339844 C 382.179688 182.339844 381.941406 182.101562 381.941406 181.808594 C 381.941406 181.519531 382.179688 181.28125 382.46875 181.28125 Z M 383.871094 181.28125 " fill-opacity="1" fill-rule="nonzero"/></svg>