<svg id="visual" viewBox="0 0 900 600" width="900" height="600" xmlns="http://www.w3.org/2000/svg" xmlns:xlink="http://www.w3.org/1999/xlink" version="1.1"><g transform="translate(45.64126212133836 -9.714158986762072)"><path d="M137.3 -175C168.3 -166.4 177.4 -113.5 174.1 -69.3C170.9 -25.2 155.3 10.1 141.2 43.5C127.1 76.9 114.4 108.4 91.1 122C67.8 135.6 33.9 131.3 -11.9 147.6C-57.6 164 -115.2 200.9 -162.8 195.2C-210.3 189.5 -247.8 141.1 -260.7 87.9C-273.6 34.7 -261.9 -23.3 -237.9 -71.2C-214 -119.2 -177.8 -157.1 -136.1 -162.3C-94.4 -167.5 -47.2 -140 2.9 -144C53.1 -148.1 106.2 -183.7 137.3 -175" fill="#ffa600"></path></g></svg>