<svg xmlns="http://www.w3.org/2000/svg" xmlns:xlink="http://www.w3.org/1999/xlink" width="900" zoomAndPan="magnify" viewBox="0 0 675 449.999984" height="600" preserveAspectRatio="xMidYMid meet" version="1.0"><defs><clipPath id="8990a81089"><path d="M 260.671875 89.894531 L 508.953125 89.894531 L 508.953125 299 L 260.671875 299 Z M 260.671875 89.894531 " clip-rule="nonzero"/></clipPath><clipPath id="fa6dae1bd9"><path d="M 220.429688 118 L 419 118 L 419 314 L 220.429688 314 Z M 220.429688 118 " clip-rule="nonzero"/></clipPath><clipPath id="b0e1f7124c"><path d="M 305.449219 165.808594 L 334.414062 165.808594 L 334.414062 194.777344 L 305.449219 194.777344 Z M 305.449219 165.808594 " clip-rule="nonzero"/></clipPath><clipPath id="c00d9e73ba"><path d="M 297.363281 239.90625 L 333 239.90625 L 333 309.425781 L 297.363281 309.425781 Z M 297.363281 239.90625 " clip-rule="nonzero"/></clipPath><clipPath id="e07c1785b4"><path d="M 339 284 L 342.054688 284 L 342.054688 288 L 339 288 Z M 339 284 " clip-rule="nonzero"/></clipPath><clipPath id="17e6ef6e74"><path d="M 339 304 L 342.054688 304 L 342.054688 308 L 339 308 Z M 339 304 " clip-rule="nonzero"/></clipPath><clipPath id="1247454a94"><path d="M 236 131.113281 L 253 131.113281 L 253 150 L 236 150 Z M 236 131.113281 " clip-rule="nonzero"/></clipPath><clipPath id="f3ba45c91b"><path d="M 232.679688 149 L 244 149 L 244 161.113281 L 232.679688 161.113281 Z M 232.679688 149 " clip-rule="nonzero"/></clipPath><clipPath id="6f594c7207"><path d="M 248 143 L 261.929688 143 L 261.929688 160 L 248 160 Z M 248 143 " clip-rule="nonzero"/></clipPath></defs><g clip-path="url(#8990a81089)"><path fill="#fdefd7" d="M 297.136719 291.28125 C 295.183594 290.308594 293.21875 289.441406 291.363281 288.386719 C 289.082031 287.097656 286.800781 285.761719 284.660156 284.25 C 282.742188 282.898438 280.980469 281.308594 279.203125 279.765625 C 278.164062 278.855469 277.171875 277.863281 276.261719 276.824219 C 274.953125 275.316406 273.664062 273.789062 272.484375 272.167969 C 271.289062 270.515625 270.171875 268.785156 269.132812 267.023438 C 268.191406 265.433594 267.324219 263.785156 266.570312 262.117188 C 265.3125 259.332031 264.019531 256.546875 263.046875 253.667969 C 262.273438 251.417969 261.960938 249.027344 261.441406 246.699219 C 260.671875 243.175781 260.765625 239.605469 260.828125 236.03125 C 260.859375 234.789062 261.109375 233.546875 261.300781 232.304688 C 261.425781 231.503906 261.582031 230.699219 261.753906 229.898438 C 262.007812 228.6875 262.242188 227.492188 262.542969 226.292969 C 262.984375 224.5625 263.453125 222.851562 263.957031 221.136719 C 264.210938 220.300781 264.570312 219.5 264.886719 218.695312 C 265.847656 216.195312 266.945312 213.757812 268.394531 211.492188 C 269.527344 209.714844 270.566406 207.875 271.746094 206.128906 C 272.972656 204.316406 274.261719 202.523438 275.648438 200.824219 C 277.078125 199.046875 278.589844 197.285156 280.191406 195.664062 C 281.105469 194.753906 281.921875 193.777344 282.742188 192.800781 C 283.765625 191.574219 285.070312 190.585938 286.1875 189.4375 C 287.792969 187.785156 289.441406 186.164062 290.890625 184.386719 C 292.527344 182.386719 294.085938 180.296875 295.4375 178.09375 C 296.554688 176.269531 297.386719 174.238281 298.207031 172.257812 C 298.898438 170.605469 299.417969 168.875 299.96875 167.160156 C 300.1875 166.453125 300.28125 165.710938 300.425781 164.988281 C 300.597656 164.09375 300.753906 163.179688 300.910156 162.28125 C 301.070312 161.371094 301.195312 160.457031 301.367188 159.5625 C 301.554688 158.539062 301.761719 157.53125 301.964844 156.507812 C 301.980469 156.460938 301.980469 156.414062 301.980469 156.367188 C 302.089844 154.890625 302.15625 153.410156 302.3125 151.929688 C 302.484375 150.183594 302.71875 148.4375 302.925781 146.691406 C 303.035156 145.796875 303.082031 144.882812 303.253906 143.988281 C 303.585938 142.226562 303.835938 140.417969 304.386719 138.71875 C 305.066406 136.65625 305.867188 134.59375 306.90625 132.691406 C 307.910156 130.851562 309.203125 129.136719 310.539062 127.515625 C 312.457031 125.1875 314.867188 123.316406 317.226562 121.460938 C 318.84375 120.183594 320.65625 119.132812 322.402344 118.03125 C 323.582031 117.289062 324.808594 116.644531 326.035156 115.96875 C 327.355469 115.246094 328.628906 114.378906 330.03125 113.828125 C 332.59375 112.824219 335.238281 111.957031 337.863281 111.09375 C 339.328125 110.621094 340.808594 110.179688 342.300781 109.867188 C 344.1875 109.472656 346.125 109.21875 348.027344 108.875 C 348.894531 108.71875 349.757812 108.480469 350.625 108.292969 C 350.703125 108.277344 350.765625 108.261719 350.84375 108.261719 C 352.527344 108.152344 354.210938 108.039062 355.910156 107.945312 C 357.671875 107.835938 359.449219 107.617188 361.210938 107.664062 C 363.066406 107.726562 364.921875 108.054688 366.765625 108.261719 C 367.046875 108.292969 367.347656 108.277344 367.628906 108.261719 C 369.53125 108.183594 371.34375 108.621094 373.152344 109.15625 C 374.503906 109.550781 375.953125 109.644531 377.351562 109.832031 C 379.128906 110.070312 380.890625 110.273438 382.667969 110.464844 C 383.140625 110.511719 383.613281 110.464844 384.085938 110.464844 C 385.703125 110.464844 387.339844 110.527344 388.960938 110.449219 C 390.125 110.382812 391.273438 110.101562 392.421875 109.914062 C 392.515625 109.898438 392.609375 109.832031 392.707031 109.847656 C 394.074219 109.929688 395.363281 109.441406 396.703125 109.265625 C 398.417969 109.046875 400.019531 108.589844 401.609375 107.976562 C 403.214844 107.347656 404.820312 106.71875 406.390625 106.027344 C 408.136719 105.257812 409.882812 104.421875 411.582031 103.558594 C 413.09375 102.769531 414.507812 101.777344 416.066406 101.070312 C 418.238281 100.082031 420.519531 99.292969 422.722656 98.351562 C 424.074219 97.769531 425.378906 97.058594 426.71875 96.414062 C 427.269531 96.148438 427.820312 95.925781 428.382812 95.691406 C 430.664062 94.761719 432.929688 93.757812 435.257812 92.921875 C 437.398438 92.167969 439.554688 91.429688 441.773438 91.019531 C 444.382812 90.53125 446.996094 89.949219 449.714844 89.996094 C 451.511719 90.027344 453.242188 90.3125 454.957031 90.6875 C 456.796875 91.113281 458.574219 91.789062 460.382812 92.386719 C 462.476562 93.078125 464.394531 94.164062 466.234375 95.328125 C 468.28125 96.636719 470.121094 98.160156 471.976562 99.734375 C 474.964844 102.25 477.136719 105.367188 479.085938 108.667969 C 480.1875 110.527344 481.195312 112.460938 482.078125 114.425781 C 483.179688 116.914062 484.167969 119.429688 485.066406 121.996094 C 485.710938 123.851562 486.136719 125.800781 486.671875 127.703125 C 487.207031 129.609375 487.773438 131.496094 488.273438 133.414062 C 488.636719 134.800781 488.855469 136.214844 489.1875 137.601562 C 489.800781 140.117188 490.445312 142.632812 491.074219 145.152344 C 491.453125 146.675781 491.78125 148.21875 492.191406 149.730469 C 492.898438 152.371094 493.609375 155.015625 494.394531 157.625 C 495.386719 160.898438 496.425781 164.171875 497.539062 167.410156 C 498.800781 171.078125 500.167969 174.710938 501.457031 178.375 C 503.0625 182.90625 504.714844 187.421875 506.207031 191.984375 C 506.839844 193.886719 507.152344 195.902344 507.578125 197.867188 C 507.90625 199.410156 508.253906 200.953125 508.503906 202.507812 C 508.679688 203.609375 508.789062 204.726562 508.820312 205.84375 C 508.945312 209.523438 509.121094 213.207031 509.105469 216.886719 C 509.105469 218.429688 508.710938 219.972656 508.503906 221.496094 C 508.488281 221.621094 508.519531 221.765625 508.503906 221.890625 C 508.300781 223.164062 508.097656 224.453125 507.890625 225.730469 C 507.6875 226.972656 507.484375 228.230469 507.246094 229.472656 C 506.726562 232.367188 505.863281 235.167969 504.902344 237.9375 C 504.132812 240.140625 503.21875 242.261719 502.292969 244.402344 C 500.8125 247.832031 498.941406 251.023438 496.832031 254.109375 C 495.195312 256.515625 493.324219 258.703125 491.183594 260.636719 C 489.390625 262.273438 487.488281 263.816406 485.570312 265.308594 C 484.027344 266.519531 482.453125 267.730469 480.769531 268.722656 C 478.710938 269.949219 476.554688 271.035156 474.351562 272.027344 C 472.652344 272.796875 470.875 273.394531 469.082031 273.929688 C 466.203125 274.78125 463.308594 275.566406 460.382812 276.289062 C 458.839844 276.667969 457.253906 277.027344 455.679688 277.027344 C 454.421875 277.027344 453.257812 277.578125 452.011719 277.40625 C 451.070312 277.28125 450.171875 277.691406 449.292969 277.675781 C 447.152344 277.644531 445.058594 277.957031 442.953125 278.019531 C 440.75 278.082031 438.53125 278.175781 436.34375 277.988281 C 434.285156 277.816406 432.175781 277.957031 430.148438 277.40625 C 430.113281 277.40625 430.097656 277.40625 430.066406 277.40625 C 428.433594 277.296875 426.796875 277.234375 425.160156 277.078125 C 423.632812 276.917969 422.140625 276.667969 420.613281 276.464844 C 419.667969 276.335938 418.710938 276.273438 417.75 276.132812 C 416.445312 275.945312 415.136719 275.707031 413.847656 275.519531 C 413.03125 275.394531 412.210938 275.28125 411.378906 275.203125 C 410.042969 275.078125 408.671875 275.0625 407.335938 274.875 C 404.753906 274.496094 402.175781 274.542969 399.597656 274.589844 C 397.753906 274.621094 395.898438 274.699219 394.058594 274.921875 C 392.140625 275.140625 390.234375 275.566406 388.316406 275.832031 C 384.132812 276.398438 380.058594 277.421875 376.078125 278.855469 C 373.984375 279.609375 371.90625 280.441406 369.878906 281.371094 C 366.699219 282.835938 363.570312 284.359375 360.441406 285.933594 C 358.867188 286.71875 357.386719 287.679688 355.847656 288.511719 C 354.070312 289.488281 352.304688 290.449219 350.496094 291.34375 C 347.320312 292.917969 344.125 294.414062 340.839844 295.734375 C 337.847656 296.929688 334.765625 297.699219 331.667969 298.472656 C 330.566406 298.738281 329.386719 298.769531 328.238281 298.800781 C 326.507812 298.847656 324.777344 298.785156 323.046875 298.816406 C 321.109375 298.847656 319.222656 298.582031 317.320312 298.21875 C 314.285156 297.621094 311.261719 296.976562 308.335938 295.96875 C 306.449219 295.324219 304.59375 294.648438 302.753906 293.894531 C 300.957031 293.089844 299.085938 292.179688 297.136719 291.28125 Z M 297.136719 291.28125 " fill-opacity="1" fill-rule="nonzero"/></g><g clip-path="url(#fa6dae1bd9)"><path fill="#ffa600" d="M 413.636719 185.367188 L 387.710938 165.742188 L 387.710938 127.824219 C 387.710938 127.371094 387.625 126.9375 387.453125 126.519531 C 387.277344 126.101562 387.03125 125.734375 386.710938 125.414062 C 386.394531 125.09375 386.023438 124.847656 385.605469 124.675781 C 385.191406 124.5 384.753906 124.414062 384.304688 124.414062 L 357.867188 124.414062 C 357.414062 124.414062 356.980469 124.5 356.5625 124.675781 C 356.144531 124.847656 355.777344 125.09375 355.457031 125.414062 C 355.136719 125.734375 354.890625 126.101562 354.71875 126.519531 C 354.546875 126.9375 354.457031 127.371094 354.457031 127.824219 L 354.457031 141.074219 L 328.089844 121.179688 C 327.476562 120.726562 326.832031 120.324219 326.15625 119.972656 C 325.480469 119.621094 324.78125 119.328125 324.054688 119.089844 C 323.332031 118.851562 322.59375 118.671875 321.84375 118.550781 C 321.089844 118.429688 320.332031 118.367188 319.570312 118.367188 C 318.808594 118.367188 318.054688 118.429688 317.300781 118.550781 C 316.546875 118.671875 315.8125 118.851562 315.085938 119.089844 C 314.363281 119.328125 313.664062 119.621094 312.988281 119.972656 C 312.3125 120.324219 311.667969 120.726562 311.054688 121.179688 L 225.507812 185.367188 C 224.234375 186.289062 223.183594 187.417969 222.363281 188.757812 C 221.542969 190.097656 221.011719 191.546875 220.769531 193.097656 C 220.65625 193.875 220.625 194.65625 220.667969 195.4375 C 220.710938 196.222656 220.828125 196.992188 221.027344 197.753906 C 221.222656 198.511719 221.496094 199.242188 221.835938 199.949219 C 222.179688 200.65625 222.589844 201.320312 223.066406 201.941406 C 223.542969 202.566406 224.074219 203.136719 224.664062 203.652344 C 225.253906 204.171875 225.890625 204.625 226.570312 205.015625 C 227.25 205.40625 227.964844 205.722656 228.707031 205.972656 C 229.453125 206.21875 230.210938 206.394531 230.992188 206.488281 C 231.558594 206.519531 232.125 206.519531 232.695312 206.488281 C 233.972656 206.488281 235.222656 206.285156 236.433594 205.878906 C 237.648438 205.46875 238.761719 204.878906 239.78125 204.105469 L 240.359375 203.660156 L 240.359375 310.402344 C 240.359375 310.851562 240.445312 311.285156 240.621094 311.703125 C 240.792969 312.121094 241.039062 312.488281 241.359375 312.808594 C 241.675781 313.128906 242.046875 313.375 242.464844 313.546875 C 242.878906 313.722656 243.316406 313.808594 243.765625 313.808594 L 395.546875 313.808594 C 396 313.808594 396.433594 313.722656 396.851562 313.546875 C 397.269531 313.375 397.636719 313.128906 397.957031 312.808594 C 398.273438 312.488281 398.519531 312.121094 398.695312 311.703125 C 398.867188 311.285156 398.953125 310.851562 398.953125 310.402344 L 398.953125 203.796875 L 399.53125 204.238281 C 400.550781 205.015625 401.667969 205.605469 402.878906 206.015625 C 404.09375 206.421875 405.339844 206.625 406.617188 206.625 C 407.542969 206.617188 408.449219 206.507812 409.347656 206.292969 C 410.242188 206.074219 411.105469 205.761719 411.925781 205.347656 C 412.75 204.933594 413.519531 204.433594 414.226562 203.84375 C 414.9375 203.253906 415.566406 202.589844 416.125 201.855469 C 417.074219 200.605469 417.742188 199.222656 418.132812 197.703125 C 418.523438 196.1875 418.601562 194.652344 418.375 193.097656 C 418.132812 191.546875 417.597656 190.097656 416.777344 188.757812 C 415.957031 187.417969 414.910156 186.289062 413.636719 185.367188 Z M 361.171875 131.128906 L 380.898438 131.128906 L 380.898438 160.800781 L 361.101562 145.980469 Z M 347.304688 307.097656 L 291.839844 307.097656 L 291.839844 213.4375 C 291.835938 213.164062 291.863281 212.886719 291.914062 212.617188 C 291.964844 212.34375 292.042969 212.082031 292.148438 211.824219 C 292.253906 211.570312 292.382812 211.324219 292.535156 211.09375 C 292.6875 210.863281 292.859375 210.648438 293.054688 210.453125 C 293.25 210.257812 293.460938 210.082031 293.691406 209.925781 C 293.921875 209.773438 294.164062 209.644531 294.417969 209.535156 C 294.671875 209.429688 294.9375 209.351562 295.207031 209.296875 C 295.480469 209.242188 295.753906 209.214844 296.03125 209.214844 L 343.113281 209.214844 C 343.390625 209.214844 343.660156 209.242188 343.929688 209.292969 C 344.199219 209.347656 344.464844 209.429688 344.71875 209.535156 C 344.972656 209.636719 345.214844 209.769531 345.441406 209.921875 C 345.671875 210.074219 345.882812 210.246094 346.078125 210.441406 C 346.269531 210.636719 346.445312 210.847656 346.597656 211.078125 C 346.75 211.304688 346.878906 211.546875 346.984375 211.800781 C 347.089844 212.054688 347.171875 212.316406 347.222656 212.585938 C 347.277344 212.855469 347.304688 213.128906 347.304688 213.40625 Z M 392.242188 307.097656 L 353.878906 307.097656 L 353.878906 213.4375 C 353.878906 212.734375 353.804688 212.035156 353.667969 211.339844 C 353.527344 210.648438 353.324219 209.976562 353.050781 209.324219 C 352.78125 208.671875 352.449219 208.050781 352.054688 207.464844 C 351.660156 206.878906 351.214844 206.335938 350.714844 205.835938 C 350.21875 205.335938 349.675781 204.890625 349.085938 204.496094 C 348.5 204.105469 347.878906 203.773438 347.226562 203.5 C 346.578125 203.230469 345.902344 203.023438 345.210938 202.886719 C 344.519531 202.746094 343.820312 202.675781 343.113281 202.671875 L 296.03125 202.671875 C 295.324219 202.675781 294.625 202.746094 293.933594 202.886719 C 293.238281 203.023438 292.566406 203.230469 291.914062 203.5 C 291.261719 203.773438 290.644531 204.105469 290.054688 204.496094 C 289.46875 204.890625 288.925781 205.335938 288.425781 205.835938 C 287.925781 206.335938 287.480469 206.878906 287.089844 207.464844 C 286.695312 208.050781 286.363281 208.671875 286.09375 209.324219 C 285.820312 209.976562 285.617188 210.648438 285.476562 211.339844 C 285.335938 212.035156 285.265625 212.734375 285.265625 213.4375 L 285.265625 307.097656 L 246.902344 307.097656 L 246.902344 198.992188 L 319.570312 144.480469 L 392.242188 198.992188 Z M 410.742188 198.074219 C 410.527344 198.34375 410.292969 198.585938 410.03125 198.8125 C 409.773438 199.035156 409.492188 199.230469 409.195312 199.402344 C 408.898438 199.570312 408.585938 199.710938 408.261719 199.820312 C 407.9375 199.933594 407.605469 200.011719 407.265625 200.058594 C 406.925781 200.105469 406.585938 200.121094 406.246094 200.101562 C 405.902344 200.082031 405.566406 200.035156 405.230469 199.949219 C 404.898438 199.867188 404.578125 199.753906 404.265625 199.613281 C 403.957031 199.46875 403.660156 199.296875 403.382812 199.097656 L 321.617188 137.769531 C 321.328125 137.566406 321.015625 137.410156 320.675781 137.300781 C 320.339844 137.191406 319.992188 137.140625 319.640625 137.140625 C 319.285156 137.140625 318.941406 137.191406 318.601562 137.300781 C 318.265625 137.410156 317.953125 137.566406 317.664062 137.769531 L 235.761719 198.992188 C 235.207031 199.410156 234.589844 199.707031 233.917969 199.886719 C 233.246094 200.0625 232.566406 200.105469 231.875 200.015625 C 230.472656 199.78125 229.335938 199.101562 228.46875 197.972656 C 228.070312 197.394531 227.792969 196.765625 227.636719 196.082031 C 227.484375 195.398438 227.46875 194.710938 227.585938 194.019531 C 227.691406 193.339844 227.921875 192.707031 228.273438 192.117188 C 228.628906 191.527344 229.078125 191.027344 229.628906 190.613281 L 315.007812 126.460938 C 316.355469 125.433594 317.878906 124.925781 319.570312 124.925781 C 321.253906 124.933594 322.777344 125.433594 324.136719 126.425781 L 409.683594 190.578125 C 410.234375 190.992188 410.6875 191.492188 411.039062 192.082031 C 411.394531 192.671875 411.625 193.304688 411.730469 193.984375 C 411.832031 194.683594 411.796875 195.375 411.625 196.058594 C 411.457031 196.742188 411.160156 197.371094 410.742188 197.9375 Z M 410.742188 198.074219 " fill-opacity="1" fill-rule="nonzero"/></g><g clip-path="url(#b0e1f7124c)"><path fill="#ffa600" d="M 319.738281 165.808594 C 311.847656 165.808594 305.449219 172.210938 305.449219 180.097656 L 305.449219 194.386719 L 334.027344 194.386719 L 334.027344 180.097656 C 334.027344 172.210938 327.625 165.808594 319.738281 165.808594 Z M 332.882812 180.097656 L 320.308594 180.097656 L 320.308594 166.972656 C 327.300781 167.277344 332.882812 173.050781 332.882812 180.097656 Z M 319.164062 166.972656 L 319.164062 180.097656 L 306.589844 180.097656 C 306.589844 173.050781 312.171875 167.277344 319.164062 166.972656 Z M 306.589844 181.242188 L 319.164062 181.242188 L 319.164062 193.246094 L 306.589844 193.246094 Z M 320.308594 193.246094 L 320.308594 181.242188 L 332.882812 181.242188 L 332.882812 193.246094 Z M 320.308594 193.246094 " fill-opacity="1" fill-rule="nonzero"/></g><g clip-path="url(#c00d9e73ba)"><path fill="#ffa600" d="M 319.007812 307.046875 L 314.402344 302.4375 C 313.914062 301.953125 313.128906 301.953125 312.644531 302.4375 C 312.15625 302.925781 312.15625 303.710938 312.644531 304.195312 L 315.492188 307.046875 L 312.65625 307.046875 L 311.046875 305.972656 C 307.925781 303.894531 306.0625 300.414062 306.0625 296.664062 C 306.0625 295.980469 305.507812 295.421875 304.820312 295.421875 C 304.136719 295.421875 303.578125 295.980469 303.578125 296.664062 C 303.578125 300.691406 305.335938 304.464844 308.355469 307.046875 L 306.441406 307.046875 L 304.832031 305.972656 C 301.710938 303.894531 299.851562 300.414062 299.851562 296.664062 L 299.851562 294.617188 C 299.851562 290.503906 303.195312 287.160156 307.308594 287.160156 C 311.417969 287.160156 314.765625 290.503906 314.765625 294.621094 C 314.765625 299.625 317.148438 304.199219 321.121094 307.046875 Z M 304.820312 284.675781 C 304.820312 283.304688 305.9375 282.1875 307.308594 282.1875 C 308.679688 282.1875 309.792969 283.304688 309.792969 284.675781 L 309.792969 284.988281 C 309 284.785156 308.164062 284.675781 307.308594 284.675781 C 306.449219 284.675781 305.617188 284.785156 304.820312 284.988281 Z M 307.308594 242.417969 C 307.992188 242.417969 308.550781 242.976562 308.550781 243.660156 L 308.550781 279.867188 C 308.152344 279.765625 307.738281 279.703125 307.308594 279.703125 C 306.878906 279.703125 306.460938 279.765625 306.066406 279.867188 L 306.066406 243.660156 C 306.066406 242.976562 306.621094 242.417969 307.308594 242.417969 Z M 330.921875 307.046875 L 326.242188 307.046875 L 324.339844 306.09375 C 319.964844 303.90625 317.25 299.511719 317.25 294.617188 C 317.25 290.945312 315.246094 287.734375 312.277344 286.011719 L 312.277344 284.675781 C 312.277344 283.417969 311.808594 282.273438 311.035156 281.398438 L 311.035156 243.660156 C 311.035156 241.605469 309.363281 239.933594 307.308594 239.933594 C 305.25 239.933594 303.578125 241.605469 303.578125 243.660156 L 303.578125 281.398438 C 302.808594 282.273438 302.335938 283.417969 302.335938 284.675781 L 302.335938 286.011719 C 299.367188 287.734375 297.363281 290.945312 297.363281 294.617188 L 297.363281 296.664062 C 297.363281 301.246094 299.640625 305.5 303.453125 308.042969 L 305.375 309.324219 C 305.582031 309.457031 305.820312 309.53125 306.066406 309.53125 L 330.921875 309.53125 C 331.609375 309.53125 332.164062 308.972656 332.164062 308.289062 C 332.164062 307.601562 331.609375 307.046875 330.921875 307.046875 " fill-opacity="1" fill-rule="nonzero"/></g><path fill="#ffa600" d="M 327.191406 284.675781 C 327.878906 284.675781 328.4375 285.230469 328.4375 285.917969 C 328.4375 286.601562 327.878906 287.160156 327.191406 287.160156 C 326.507812 287.160156 325.949219 286.601562 325.949219 285.917969 C 325.949219 285.230469 326.507812 284.675781 327.191406 284.675781 Z M 327.191406 289.644531 C 329.25 289.644531 330.921875 287.972656 330.921875 285.917969 C 330.921875 283.863281 329.25 282.1875 327.191406 282.1875 C 325.136719 282.1875 323.464844 283.863281 323.464844 285.917969 C 323.464844 287.972656 325.136719 289.644531 327.191406 289.644531 " fill-opacity="1" fill-rule="nonzero"/><path fill="#ffa600" d="M 333.40625 298.347656 C 332.722656 298.347656 332.164062 297.789062 332.164062 297.101562 C 332.164062 296.417969 332.722656 295.859375 333.40625 295.859375 C 334.09375 295.859375 334.648438 296.417969 334.648438 297.101562 C 334.648438 297.789062 334.09375 298.347656 333.40625 298.347656 Z M 333.40625 293.375 C 331.351562 293.375 329.679688 295.046875 329.679688 297.101562 C 329.679688 299.160156 331.351562 300.832031 333.40625 300.832031 C 335.464844 300.832031 337.136719 299.160156 337.136719 297.101562 C 337.136719 295.046875 335.464844 293.375 333.40625 293.375 " fill-opacity="1" fill-rule="nonzero"/><g clip-path="url(#e07c1785b4)"><path fill="#ffa600" d="M 340.863281 287.160156 C 341.550781 287.160156 342.105469 286.605469 342.105469 285.917969 C 342.105469 285.230469 341.550781 284.675781 340.863281 284.675781 C 340.175781 284.675781 339.621094 285.230469 339.621094 285.917969 C 339.621094 286.605469 340.175781 287.160156 340.863281 287.160156 " fill-opacity="1" fill-rule="nonzero"/></g><g clip-path="url(#17e6ef6e74)"><path fill="#ffa600" d="M 340.863281 304.558594 C 340.175781 304.558594 339.621094 305.117188 339.621094 305.804688 C 339.621094 306.488281 340.175781 307.046875 340.863281 307.046875 C 341.550781 307.046875 342.105469 306.488281 342.105469 305.804688 C 342.105469 305.117188 341.550781 304.558594 340.863281 304.558594 " fill-opacity="1" fill-rule="nonzero"/></g><path fill="#ffa600" d="M 323.464844 297.101562 C 324.148438 297.101562 324.707031 296.546875 324.707031 295.859375 C 324.707031 295.171875 324.148438 294.617188 323.464844 294.617188 C 322.777344 294.617188 322.222656 295.171875 322.222656 295.859375 C 322.222656 296.546875 322.777344 297.101562 323.464844 297.101562 " fill-opacity="1" fill-rule="nonzero"/><g clip-path="url(#1247454a94)"><path fill="#ffa600" d="M 252.992188 140.351562 C 252.992188 139.816406 252.460938 139.675781 251.789062 139.496094 C 250.835938 139.242188 249.242188 138.816406 247.765625 137.34375 C 246.230469 135.804688 245.800781 133.757812 245.542969 132.53125 C 245.371094 131.707031 245.265625 131.210938 244.757812 131.210938 C 244.246094 131.210938 244.144531 131.707031 243.972656 132.53125 C 243.714844 133.753906 243.285156 135.804688 241.75 137.34375 C 240.273438 138.816406 238.679688 139.242188 237.726562 139.496094 C 237.050781 139.675781 236.519531 139.816406 236.519531 140.351562 C 236.519531 140.882812 237.050781 141.027344 237.726562 141.207031 C 238.679688 141.460938 240.273438 141.886719 241.75 143.359375 C 243.285156 144.898438 243.714844 146.945312 243.972656 148.171875 C 244.144531 148.992188 244.246094 149.488281 244.757812 149.488281 C 245.265625 149.488281 245.371094 148.992188 245.542969 148.171875 C 245.800781 146.945312 246.226562 144.898438 247.765625 143.359375 C 249.242188 141.882812 250.835938 141.460938 251.785156 141.207031 C 252.460938 141.027344 252.992188 140.882812 252.992188 140.351562 Z M 247.125 142.714844 C 245.601562 144.234375 245.046875 146.195312 244.757812 147.488281 C 244.46875 146.195312 243.910156 144.234375 242.390625 142.714844 C 240.792969 141.117188 239.105469 140.628906 238.054688 140.351562 C 239.105469 140.070312 240.792969 139.585938 242.390625 137.984375 C 243.910156 136.464844 244.46875 134.503906 244.757812 133.210938 C 245.046875 134.503906 245.601562 136.464844 247.125 137.984375 C 248.722656 139.585938 250.410156 140.070312 251.460938 140.351562 C 250.410156 140.632812 248.722656 141.117188 247.125 142.714844 Z M 247.125 142.714844 " fill-opacity="1" fill-rule="nonzero"/></g><g clip-path="url(#f3ba45c91b)"><path fill="#ffa600" d="M 242.65625 154.539062 C 242.0625 154.382812 241.070312 154.117188 240.15625 153.203125 C 239.207031 152.253906 238.9375 150.972656 238.777344 150.207031 C 238.664062 149.664062 238.574219 149.234375 238.113281 149.234375 C 237.65625 149.234375 237.566406 149.660156 237.453125 150.207031 C 237.292969 150.972656 237.027344 152.253906 236.074219 153.203125 C 235.160156 154.117188 234.167969 154.382812 233.574219 154.539062 C 233.132812 154.65625 232.679688 154.777344 232.679688 155.246094 C 232.679688 155.714844 233.132812 155.835938 233.574219 155.953125 C 234.167969 156.109375 235.160156 156.375 236.074219 157.289062 C 237.027344 158.238281 237.292969 159.523438 237.453125 160.285156 C 237.566406 160.828125 237.65625 161.257812 238.113281 161.257812 C 238.574219 161.257812 238.664062 160.828125 238.777344 160.285156 C 238.9375 159.519531 239.207031 158.238281 240.15625 157.289062 C 241.070312 156.375 242.0625 156.109375 242.65625 155.953125 C 243.097656 155.835938 243.550781 155.714844 243.550781 155.246094 C 243.550781 154.777344 243.097656 154.65625 242.65625 154.539062 Z M 239.511719 156.644531 C 238.734375 157.421875 238.339844 158.367188 238.117188 159.144531 C 237.890625 158.367188 237.496094 157.421875 236.71875 156.644531 C 235.917969 155.839844 235.058594 155.457031 234.410156 155.246094 C 235.058594 155.03125 235.917969 154.648438 236.71875 153.847656 C 237.496094 153.070312 237.890625 152.128906 238.117188 151.347656 C 238.339844 152.128906 238.734375 153.070312 239.511719 153.847656 C 240.316406 154.652344 241.171875 155.03125 241.820312 155.246094 C 241.171875 155.460938 240.316406 155.839844 239.511719 156.644531 Z M 239.511719 156.644531 " fill-opacity="1" fill-rule="nonzero"/></g><g clip-path="url(#6f594c7207)"><path fill="#ffa600" d="M 260.9375 150.953125 C 260.144531 150.738281 258.820312 150.386719 257.59375 149.164062 C 256.316406 147.886719 255.960938 146.179688 255.746094 145.15625 C 255.597656 144.457031 255.5 143.992188 255.015625 143.992188 C 254.527344 143.992188 254.429688 144.457031 254.285156 145.15625 C 254.070312 146.179688 253.714844 147.886719 252.4375 149.164062 C 251.210938 150.386719 249.882812 150.742188 249.089844 150.953125 C 248.519531 151.105469 248.023438 151.238281 248.023438 151.742188 C 248.023438 152.246094 248.519531 152.375 249.089844 152.527344 C 249.882812 152.742188 251.210938 153.09375 252.4375 154.320312 C 253.710938 155.59375 254.070312 157.304688 254.285156 158.324219 C 254.429688 159.027344 254.527344 159.492188 255.015625 159.492188 C 255.5 159.492188 255.597656 159.027344 255.746094 158.324219 C 255.960938 157.304688 256.316406 155.59375 257.59375 154.320312 C 258.820312 153.09375 260.144531 152.738281 260.941406 152.527344 C 261.511719 152.375 262.007812 152.246094 262.007812 151.742188 C 262.003906 151.238281 261.511719 151.105469 260.9375 150.953125 Z M 256.949219 153.675781 C 255.773438 154.851562 255.28125 156.332031 255.015625 157.414062 C 254.75 156.332031 254.253906 154.851562 253.078125 153.675781 C 251.855469 152.449219 250.527344 151.984375 249.660156 151.738281 C 250.554688 151.488281 251.847656 151.039062 253.078125 149.804688 C 254.253906 148.628906 254.75 147.148438 255.015625 146.066406 C 255.277344 147.148438 255.773438 148.628906 256.949219 149.804688 C 258.183594 151.039062 259.476562 151.488281 260.367188 151.738281 C 259.503906 151.984375 258.175781 152.449219 256.949219 153.675781 Z M 256.949219 153.675781 " fill-opacity="1" fill-rule="nonzero"/></g></svg>