<svg id="visual" viewBox="0 0 900 600" width="900" height="600" xmlns="http://www.w3.org/2000/svg" xmlns:xlink="http://www.w3.org/1999/xlink" version="1.1"><g transform="translate(567.0426357682621 385.10219411315353)"><path d="M264.6 -296.2C317.2 -271.3 316.2 -163.4 289.8 -84.8C263.5 -6.2 211.9 43.1 168.7 78.2C125.6 113.3 91 134.2 59.5 132C28 129.8 -0.4 104.5 -62.5 109.1C-124.6 113.7 -220.4 148.1 -326.3 115.3C-432.3 82.6 -548.5 -17.3 -541.3 -101.9C-534 -186.4 -403.3 -255.6 -292.5 -270.2C-181.7 -284.9 -90.8 -244.9 7.6 -254C106.1 -263.1 212.1 -321.1 264.6 -296.2" fill="#ffa60078"></path></g></svg>