<svg xmlns="http://www.w3.org/2000/svg" xmlns:xlink="http://www.w3.org/1999/xlink" width="500" zoomAndPan="magnify" viewBox="0 0 375 374.999991" height="500" preserveAspectRatio="xMidYMid meet" version="1.0"><defs><g/></defs><g fill="#ffd380" fill-opacity="1"><g transform="translate(86.922313, 164.390891)"><g><path d="M 49.34375 -30.59375 C 49.976562 -30.59375 50.472656 -30.492188 50.828125 -30.296875 C 51.179688 -30.097656 51.359375 -29.816406 51.359375 -29.453125 C 51.359375 -29.296875 51.3125 -29.09375 51.21875 -28.84375 C 51.125 -28.570312 50.992188 -28.363281 50.828125 -28.21875 C 50.660156 -28.082031 50.410156 -27.910156 50.078125 -27.703125 C 49.585938 -27.421875 49.195312 -27.113281 48.90625 -26.78125 C 48.613281 -26.445312 48.359375 -25.925781 48.140625 -25.21875 L 42.53125 -5.46875 C 42.414062 -5.070312 42.359375 -4.6875 42.359375 -4.3125 C 42.359375 -3.976562 42.410156 -3.695312 42.515625 -3.46875 C 42.617188 -3.238281 42.765625 -2.972656 42.953125 -2.671875 C 43.078125 -2.515625 43.179688 -2.347656 43.265625 -2.171875 C 43.359375 -2.003906 43.40625 -1.832031 43.40625 -1.65625 C 43.40625 -1.59375 43.375 -1.4375 43.3125 -1.1875 C 43.195312 -0.789062 42.914062 -0.5 42.46875 -0.3125 C 42.019531 -0.132812 41.382812 -0.046875 40.5625 -0.046875 L 29.765625 -0.046875 C 29.117188 -0.046875 28.617188 -0.148438 28.265625 -0.359375 C 27.921875 -0.578125 27.75 -0.867188 27.75 -1.234375 C 27.75 -1.421875 27.796875 -1.625 27.890625 -1.84375 C 27.972656 -2.050781 28.097656 -2.238281 28.265625 -2.40625 C 28.441406 -2.582031 28.597656 -2.707031 28.734375 -2.78125 C 28.867188 -2.851562 28.96875 -2.921875 29.03125 -2.984375 C 29.519531 -3.265625 29.914062 -3.570312 30.21875 -3.90625 C 30.53125 -4.238281 30.796875 -4.757812 31.015625 -5.46875 L 34.5 -17.875 L 22.59375 -3.125 C 21.613281 -1.925781 20.828125 -1.101562 20.234375 -0.65625 C 19.640625 -0.21875 18.957031 0 18.1875 0 C 17.457031 0 16.882812 -0.234375 16.46875 -0.703125 C 16.050781 -1.179688 15.675781 -1.988281 15.34375 -3.125 L 11.03125 -17.3125 L 7.625 -5.421875 C 7.5 -5.023438 7.4375 -4.640625 7.4375 -4.265625 C 7.4375 -3.898438 7.488281 -3.59375 7.59375 -3.34375 C 7.707031 -3.101562 7.867188 -2.847656 8.078125 -2.578125 C 8.359375 -2.171875 8.5 -1.847656 8.5 -1.609375 C 8.5 -1.546875 8.46875 -1.394531 8.40625 -1.15625 C 8.28125 -0.71875 8.003906 -0.414062 7.578125 -0.25 C 7.148438 -0.0820312 6.507812 0 5.65625 0 L 1.84375 0 C 1.195312 0 0.695312 -0.101562 0.34375 -0.3125 C -0.0078125 -0.53125 -0.1875 -0.820312 -0.1875 -1.1875 C -0.1875 -1.375 -0.140625 -1.578125 -0.046875 -1.796875 C 0.078125 -2.128906 0.273438 -2.382812 0.546875 -2.5625 C 0.828125 -2.75 1 -2.859375 1.0625 -2.890625 C 1.550781 -3.203125 1.945312 -3.515625 2.25 -3.828125 C 2.550781 -4.148438 2.8125 -4.679688 3.03125 -5.421875 L 8.640625 -25.265625 L 7.90625 -27.703125 C 7.75 -28.160156 7.671875 -28.601562 7.671875 -29.03125 C 7.671875 -29.582031 7.847656 -29.976562 8.203125 -30.21875 C 8.554688 -30.46875 9.097656 -30.59375 9.828125 -30.59375 L 16.953125 -30.59375 C 17.867188 -30.59375 18.546875 -30.394531 18.984375 -30 C 19.429688 -29.601562 19.796875 -28.914062 20.078125 -27.9375 L 24.671875 -12.671875 L 37.125 -28.15625 C 37.914062 -29.132812 38.691406 -29.785156 39.453125 -30.109375 C 40.222656 -30.429688 41.238281 -30.59375 42.5 -30.59375 Z M 49.34375 -30.59375 "/></g></g></g><g fill="#ffd380" fill-opacity="1"><g transform="translate(136.626737, 164.390891)"><g><path d="M 16.40625 -24.296875 C 19.925781 -24.296875 22.738281 -23.644531 24.84375 -22.34375 C 26.957031 -21.039062 28.015625 -19.0625 28.015625 -16.40625 C 28.015625 -15.394531 27.832031 -14.242188 27.46875 -12.953125 L 25.59375 -6.609375 C 25.5625 -6.492188 25.546875 -6.34375 25.546875 -6.15625 C 25.546875 -5.664062 25.742188 -5.421875 26.140625 -5.421875 C 26.503906 -5.421875 26.816406 -5.582031 27.078125 -5.90625 C 27.335938 -6.226562 27.515625 -6.390625 27.609375 -6.390625 C 27.765625 -6.390625 27.894531 -6.28125 28 -6.0625 C 28.101562 -5.851562 28.15625 -5.609375 28.15625 -5.328125 C 28.1875 -4.503906 27.875 -3.660156 27.21875 -2.796875 C 26.5625 -1.941406 25.679688 -1.238281 24.578125 -0.6875 C 23.472656 -0.132812 22.265625 0.140625 20.953125 0.140625 C 19.359375 0.140625 17.992188 -0.148438 16.859375 -0.734375 C 15.722656 -1.316406 14.941406 -2.175781 14.515625 -3.3125 C 13.597656 -2.207031 12.507812 -1.351562 11.25 -0.75 C 10 -0.15625 8.65625 0.140625 7.21875 0.140625 C 5.59375 0.140625 4.226562 -0.171875 3.125 -0.796875 C 2.019531 -1.429688 1.195312 -2.242188 0.65625 -3.234375 C 0.125 -4.234375 -0.140625 -5.285156 -0.140625 -6.390625 C -0.140625 -6.878906 -0.09375 -7.351562 0 -7.8125 C 0.488281 -9.925781 1.550781 -11.515625 3.1875 -12.578125 C 4.832031 -13.648438 6.785156 -14.1875 9.046875 -14.1875 C 11.585938 -14.1875 14.082031 -13.789062 16.53125 -13 L 17.6875 -16.03125 C 18.082031 -17.320312 18.28125 -18.316406 18.28125 -19.015625 C 18.25 -19.753906 18.003906 -20.304688 17.546875 -20.671875 C 17.085938 -21.035156 16.382812 -21.21875 15.4375 -21.21875 C 15.613281 -20.726562 15.703125 -20.222656 15.703125 -19.703125 C 15.703125 -18.566406 15.273438 -17.585938 14.421875 -16.765625 C 13.566406 -15.941406 12.34375 -15.53125 10.75 -15.53125 C 9.25 -15.53125 8.078125 -15.859375 7.234375 -16.515625 C 6.390625 -17.171875 5.96875 -17.988281 5.96875 -18.96875 C 5.96875 -20.5 6.820312 -21.769531 8.53125 -22.78125 C 10.25 -23.789062 12.875 -24.296875 16.40625 -24.296875 Z M 13.828125 -10.375 C 12.972656 -10.375 12.273438 -10.046875 11.734375 -9.390625 C 11.203125 -8.734375 10.9375 -8.023438 10.9375 -7.265625 C 10.9375 -6.765625 11.050781 -6.363281 11.28125 -6.0625 C 11.507812 -5.757812 11.835938 -5.609375 12.265625 -5.609375 C 12.660156 -5.609375 13.09375 -5.765625 13.5625 -6.078125 C 14.039062 -6.398438 14.390625 -6.882812 14.609375 -7.53125 L 15.578125 -10.25 C 15.054688 -10.332031 14.472656 -10.375 13.828125 -10.375 Z M 13.828125 -10.375 "/></g></g></g><g fill="#ffd380" fill-opacity="1"><g transform="translate(168.828983, 164.390891)"><g><path d="M 22.5625 -24.296875 C 24.269531 -24.296875 25.632812 -23.773438 26.65625 -22.734375 C 27.6875 -21.691406 28.203125 -20.40625 28.203125 -18.875 C 28.203125 -18.289062 28.140625 -17.753906 28.015625 -17.265625 C 27.710938 -16.015625 27.128906 -15.050781 26.265625 -14.375 C 25.410156 -13.707031 24.390625 -13.375 23.203125 -13.375 C 22.035156 -13.375 21.148438 -13.644531 20.546875 -14.1875 C 19.953125 -14.738281 19.425781 -15.476562 18.96875 -16.40625 C 18.726562 -16.925781 18.5 -17.304688 18.28125 -17.546875 C 18.070312 -17.796875 17.828125 -17.921875 17.546875 -17.921875 C 17.242188 -17.921875 16.976562 -17.796875 16.75 -17.546875 C 16.519531 -17.304688 16.3125 -16.878906 16.125 -16.265625 L 12.59375 -4.78125 C 12.53125 -4.625 12.5 -4.394531 12.5 -4.09375 C 12.5 -3.6875 12.613281 -3.351562 12.84375 -3.09375 C 13.070312 -2.832031 13.382812 -2.582031 13.78125 -2.34375 C 14.144531 -2.09375 14.390625 -1.890625 14.515625 -1.734375 C 14.640625 -1.585938 14.6875 -1.394531 14.65625 -1.15625 C 14.59375 -0.75 14.367188 -0.453125 13.984375 -0.265625 C 13.597656 -0.0859375 12.945312 0 12.03125 0 L 0.28125 0 C -0.519531 0 -1.09375 -0.128906 -1.4375 -0.390625 C -1.789062 -0.648438 -1.925781 -0.992188 -1.84375 -1.421875 C -1.71875 -1.785156 -1.394531 -2.109375 -0.875 -2.390625 C -0.414062 -2.628906 -0.0351562 -2.914062 0.265625 -3.25 C 0.578125 -3.59375 0.84375 -4.132812 1.0625 -4.875 L 5.140625 -18.140625 C 5.203125 -18.296875 5.234375 -18.507812 5.234375 -18.78125 C 5.234375 -19.125 5.164062 -19.382812 5.03125 -19.5625 C 4.894531 -19.75 4.671875 -19.984375 4.359375 -20.265625 C 4.054688 -20.503906 3.84375 -20.710938 3.71875 -20.890625 C 3.59375 -21.078125 3.578125 -21.328125 3.671875 -21.640625 C 3.859375 -22.335938 4.820312 -22.953125 6.5625 -23.484375 C 8.3125 -24.023438 10.132812 -24.296875 12.03125 -24.296875 C 13.289062 -24.296875 14.332031 -24.007812 15.15625 -23.4375 C 15.988281 -22.875 16.523438 -22.078125 16.765625 -21.046875 C 18.234375 -23.210938 20.164062 -24.296875 22.5625 -24.296875 Z M 22.5625 -24.296875 "/></g></g></g><g fill="#ffd380" fill-opacity="1"><g transform="translate(197.585911, 164.390891)"><g><path d="M 12.078125 -24.296875 C 13.859375 -24.296875 15.160156 -23.957031 15.984375 -23.28125 C 16.816406 -22.613281 17.234375 -21.695312 17.234375 -20.53125 C 17.234375 -19.832031 17.125 -19.160156 16.90625 -18.515625 L 12.6875 -4.78125 C 12.59375 -4.40625 12.546875 -4.082031 12.546875 -3.8125 C 12.546875 -3.414062 12.617188 -3.101562 12.765625 -2.875 C 12.921875 -2.644531 13.140625 -2.421875 13.421875 -2.203125 C 13.628906 -1.992188 13.78125 -1.816406 13.875 -1.671875 C 13.96875 -1.535156 13.984375 -1.363281 13.921875 -1.15625 C 13.765625 -0.75 13.457031 -0.453125 13 -0.265625 C 12.539062 -0.0859375 11.835938 0 10.890625 0 L 0.421875 0 C -0.378906 0 -0.960938 -0.128906 -1.328125 -0.390625 C -1.691406 -0.648438 -1.816406 -0.992188 -1.703125 -1.421875 C -1.578125 -1.785156 -1.253906 -2.109375 -0.734375 -2.390625 C -0.273438 -2.628906 0.101562 -2.914062 0.40625 -3.25 C 0.71875 -3.59375 0.984375 -4.132812 1.203125 -4.875 L 5.1875 -18.140625 C 5.28125 -18.421875 5.328125 -18.648438 5.328125 -18.828125 C 5.328125 -19.171875 5.25 -19.441406 5.09375 -19.640625 C 4.945312 -19.835938 4.71875 -20.046875 4.40625 -20.265625 C 4.101562 -20.503906 3.890625 -20.710938 3.765625 -20.890625 C 3.648438 -21.078125 3.632812 -21.328125 3.71875 -21.640625 C 3.90625 -22.335938 4.867188 -22.953125 6.609375 -23.484375 C 8.359375 -24.023438 10.179688 -24.296875 12.078125 -24.296875 Z M 15.171875 -34.453125 C 16.359375 -34.453125 17.347656 -34.0625 18.140625 -33.28125 C 18.941406 -32.5 19.34375 -31.539062 19.34375 -30.40625 C 19.34375 -29.613281 19.132812 -28.832031 18.71875 -28.0625 C 18.3125 -27.300781 17.734375 -26.679688 16.984375 -26.203125 C 16.234375 -25.734375 15.394531 -25.5 14.46875 -25.5 C 13.3125 -25.5 12.34375 -25.890625 11.5625 -26.671875 C 10.78125 -27.453125 10.375 -28.421875 10.34375 -29.578125 C 10.34375 -30.347656 10.539062 -31.109375 10.9375 -31.859375 C 11.332031 -32.609375 11.894531 -33.226562 12.625 -33.71875 C 13.363281 -34.207031 14.210938 -34.453125 15.171875 -34.453125 Z M 15.171875 -34.453125 "/></g></g></g><g fill="#ffd380" fill-opacity="1"><g transform="translate(216.558175, 164.390891)"><g><path d="M 16.40625 -24.296875 C 19.925781 -24.296875 22.738281 -23.644531 24.84375 -22.34375 C 26.957031 -21.039062 28.015625 -19.0625 28.015625 -16.40625 C 28.015625 -15.394531 27.832031 -14.242188 27.46875 -12.953125 L 25.59375 -6.609375 C 25.5625 -6.492188 25.546875 -6.34375 25.546875 -6.15625 C 25.546875 -5.664062 25.742188 -5.421875 26.140625 -5.421875 C 26.503906 -5.421875 26.816406 -5.582031 27.078125 -5.90625 C 27.335938 -6.226562 27.515625 -6.390625 27.609375 -6.390625 C 27.765625 -6.390625 27.894531 -6.28125 28 -6.0625 C 28.101562 -5.851562 28.15625 -5.609375 28.15625 -5.328125 C 28.1875 -4.503906 27.875 -3.660156 27.21875 -2.796875 C 26.5625 -1.941406 25.679688 -1.238281 24.578125 -0.6875 C 23.472656 -0.132812 22.265625 0.140625 20.953125 0.140625 C 19.359375 0.140625 17.992188 -0.148438 16.859375 -0.734375 C 15.722656 -1.316406 14.941406 -2.175781 14.515625 -3.3125 C 13.597656 -2.207031 12.507812 -1.351562 11.25 -0.75 C 10 -0.15625 8.65625 0.140625 7.21875 0.140625 C 5.59375 0.140625 4.226562 -0.171875 3.125 -0.796875 C 2.019531 -1.429688 1.195312 -2.242188 0.65625 -3.234375 C 0.125 -4.234375 -0.140625 -5.285156 -0.140625 -6.390625 C -0.140625 -6.878906 -0.09375 -7.351562 0 -7.8125 C 0.488281 -9.925781 1.550781 -11.515625 3.1875 -12.578125 C 4.832031 -13.648438 6.785156 -14.1875 9.046875 -14.1875 C 11.585938 -14.1875 14.082031 -13.789062 16.53125 -13 L 17.6875 -16.03125 C 18.082031 -17.320312 18.28125 -18.316406 18.28125 -19.015625 C 18.25 -19.753906 18.003906 -20.304688 17.546875 -20.671875 C 17.085938 -21.035156 16.382812 -21.21875 15.4375 -21.21875 C 15.613281 -20.726562 15.703125 -20.222656 15.703125 -19.703125 C 15.703125 -18.566406 15.273438 -17.585938 14.421875 -16.765625 C 13.566406 -15.941406 12.34375 -15.53125 10.75 -15.53125 C 9.25 -15.53125 8.078125 -15.859375 7.234375 -16.515625 C 6.390625 -17.171875 5.96875 -17.988281 5.96875 -18.96875 C 5.96875 -20.5 6.820312 -21.769531 8.53125 -22.78125 C 10.25 -23.789062 12.875 -24.296875 16.40625 -24.296875 Z M 13.828125 -10.375 C 12.972656 -10.375 12.273438 -10.046875 11.734375 -9.390625 C 11.203125 -8.734375 10.9375 -8.023438 10.9375 -7.265625 C 10.9375 -6.765625 11.050781 -6.363281 11.28125 -6.0625 C 11.507812 -5.757812 11.835938 -5.609375 12.265625 -5.609375 C 12.660156 -5.609375 13.09375 -5.765625 13.5625 -6.078125 C 14.039062 -6.398438 14.390625 -6.882812 14.609375 -7.53125 L 15.578125 -10.25 C 15.054688 -10.332031 14.472656 -10.375 13.828125 -10.375 Z M 13.828125 -10.375 "/></g></g></g><g fill="#ffd380" fill-opacity="1"><g transform="translate(248.760426, 164.390891)"><g><path d="M 10.65625 -31.921875 C 12 -31.921875 13.160156 -31.414062 14.140625 -30.40625 C 15.128906 -29.394531 15.625 -28.066406 15.625 -26.421875 C 15.625 -25.773438 15.53125 -25.082031 15.34375 -24.34375 C 15.007812 -22.96875 14.40625 -21.78125 13.53125 -20.78125 C 12.65625 -19.789062 11.648438 -19.039062 10.515625 -18.53125 C 9.378906 -18.03125 8.28125 -17.78125 7.21875 -17.78125 C 5.957031 -17.78125 5.328125 -18.144531 5.328125 -18.875 C 5.328125 -19.0625 5.34375 -19.203125 5.375 -19.296875 C 5.46875 -19.628906 5.648438 -19.910156 5.921875 -20.140625 C 6.203125 -20.367188 6.632812 -20.679688 7.21875 -21.078125 C 7.882812 -21.578125 8.367188 -21.976562 8.671875 -22.28125 C 8.984375 -22.582031 9.140625 -22.945312 9.140625 -23.375 C 9.140625 -23.65625 9.054688 -23.929688 8.890625 -24.203125 C 8.722656 -24.484375 8.453125 -24.851562 8.078125 -25.3125 C 7.585938 -25.957031 7.21875 -26.492188 6.96875 -26.921875 C 6.726562 -27.347656 6.609375 -27.835938 6.609375 -28.390625 C 6.609375 -28.722656 6.65625 -29.046875 6.75 -29.359375 C 7 -30.179688 7.457031 -30.8125 8.125 -31.25 C 8.800781 -31.695312 9.644531 -31.921875 10.65625 -31.921875 Z M 10.65625 -31.921875 "/></g></g></g><g fill="#ffd380" fill-opacity="1"><g transform="translate(264.884554, 164.390891)"><g><path d="M 15.109375 -24.71875 C 17.648438 -24.71875 19.847656 -24.488281 21.703125 -24.03125 C 23.554688 -23.570312 24.976562 -22.925781 25.96875 -22.09375 C 26.96875 -21.269531 27.46875 -20.335938 27.46875 -19.296875 C 27.46875 -18.222656 27.046875 -17.347656 26.203125 -16.671875 C 25.359375 -16.003906 24.1875 -15.671875 22.6875 -15.671875 C 21.15625 -15.671875 19.863281 -16.050781 18.8125 -16.8125 C 17.757812 -17.582031 17.234375 -18.546875 17.234375 -19.703125 C 17.234375 -20.097656 17.289062 -20.484375 17.40625 -20.859375 C 16.851562 -21.003906 16.363281 -21.078125 15.9375 -21.078125 C 15.175781 -21.078125 14.539062 -20.894531 14.03125 -20.53125 C 13.53125 -20.164062 13.296875 -19.644531 13.328125 -18.96875 C 13.328125 -18.175781 13.722656 -17.503906 14.515625 -16.953125 C 15.304688 -16.398438 16.59375 -15.710938 18.375 -14.890625 C 19.90625 -14.210938 21.164062 -13.585938 22.15625 -13.015625 C 23.15625 -12.453125 24 -11.738281 24.6875 -10.875 C 25.375 -10.019531 25.71875 -9.015625 25.71875 -7.859375 C 25.71875 -7.609375 25.660156 -7.148438 25.546875 -6.484375 C 25.054688 -4.429688 23.691406 -2.804688 21.453125 -1.609375 C 19.210938 -0.410156 16.273438 0.1875 12.640625 0.1875 C 8.535156 0.1875 5.28125 -0.363281 2.875 -1.46875 C 0.46875 -2.570312 -0.734375 -4.085938 -0.734375 -6.015625 C -0.734375 -7.335938 -0.335938 -8.332031 0.453125 -9 C 1.253906 -9.675781 2.3125 -10.015625 3.625 -10.015625 C 5.15625 -10.015625 6.460938 -9.539062 7.546875 -8.59375 C 8.640625 -7.644531 9.1875 -6.4375 9.1875 -4.96875 C 9.1875 -4.5625 9.140625 -4.144531 9.046875 -3.71875 C 9.785156 -3.539062 10.488281 -3.453125 11.15625 -3.453125 C 11.957031 -3.453125 12.617188 -3.664062 13.140625 -4.09375 C 13.660156 -4.519531 13.921875 -5.113281 13.921875 -5.875 C 13.890625 -6.582031 13.535156 -7.1875 12.859375 -7.6875 C 12.191406 -8.195312 11.117188 -8.804688 9.640625 -9.515625 C 8.265625 -10.148438 7.132812 -10.75 6.25 -11.3125 C 5.363281 -11.882812 4.601562 -12.597656 3.96875 -13.453125 C 3.34375 -14.316406 3.03125 -15.328125 3.03125 -16.484375 C 3.03125 -19.003906 4.078125 -21.003906 6.171875 -22.484375 C 8.273438 -23.972656 11.253906 -24.71875 15.109375 -24.71875 Z M 15.109375 -24.71875 "/></g></g></g><path stroke-linecap="butt" transform="matrix(0.75, 0, 0, 0.75, 38.579574, 126.360652)" fill="none" stroke-linejoin="miter" d="M 127.529335 7.206632 C 128.38871 7.206632 129.050169 7.342049 129.518919 7.612882 C 129.987669 7.86809 130.222044 8.24309 130.222044 8.732674 C 130.222044 8.941007 130.164752 9.211841 130.04496 9.539966 C 129.925169 9.909757 129.748085 10.180591 129.518919 10.362882 C 129.300169 10.539966 128.966835 10.774341 128.518919 11.066007 C 127.85746 11.435799 127.336627 11.842049 126.946002 12.289966 C 126.560585 12.737883 126.227252 13.430591 125.946002 14.368091 L 118.466834 40.717053 C 118.310584 41.248303 118.227251 41.753511 118.227251 42.243095 C 118.227251 42.691012 118.300167 43.07122 118.440792 43.378512 C 118.576209 43.680595 118.774126 44.034762 119.024126 44.441012 C 119.180376 44.649345 119.321001 44.868095 119.440792 45.097262 C 119.571001 45.316012 119.633501 45.550387 119.633501 45.800387 C 119.633501 45.88372 119.597042 46.086845 119.513709 46.41497 C 119.347042 46.941012 118.961626 47.331637 118.362667 47.581637 C 117.774126 47.821221 116.935584 47.941012 115.836625 47.941012 L 101.435582 47.941012 C 100.581415 47.941012 99.914748 47.800387 99.445998 47.519137 C 98.977248 47.232679 98.742873 46.836845 98.742873 46.342054 C 98.742873 46.10247 98.805373 45.836845 98.925165 45.545179 C 99.055373 45.25872 99.227248 45.003512 99.445998 44.784762 C 99.675165 44.555595 99.883498 44.388928 100.060582 44.28997 C 100.242873 44.191012 100.373082 44.10247 100.466832 44.024345 C 101.112665 43.654553 101.638707 43.243095 102.050165 42.795178 C 102.456415 42.347262 102.805374 41.654553 103.09704 40.717053 L 107.748083 24.180593 L 91.883497 43.826428 C 90.576205 45.425387 89.524122 46.519137 88.727247 47.118096 C 87.930372 47.706637 87.024122 47.998304 86.003288 47.998304 C 85.02933 47.998304 84.258496 47.685804 83.701204 47.055595 C 83.154329 46.420179 82.654329 45.342054 82.206413 43.826428 L 76.451203 24.909759 L 71.919953 40.779553 C 71.758495 41.305595 71.68037 41.816011 71.68037 42.300387 C 71.68037 42.78997 71.748078 43.201428 71.888703 43.529553 C 72.029328 43.857678 72.24287 44.206637 72.529328 44.576429 C 72.89912 45.10247 73.08662 45.534762 73.08662 45.862887 C 73.08662 45.941012 73.044953 46.144137 72.966828 46.472262 C 72.794953 47.045179 72.419953 47.441012 71.841828 47.670179 C 71.274119 47.888929 70.425161 47.998304 69.284536 47.998304 L 64.201202 47.998304 C 63.347035 47.998304 62.680368 47.862887 62.211618 47.581637 C 61.742868 47.289971 61.508493 46.904554 61.508493 46.41497 C 61.508493 46.16497 61.570993 45.894137 61.690785 45.607679 C 61.852243 45.159762 62.11266 44.816012 62.482452 44.576429 C 62.852243 44.326428 63.076202 44.180595 63.154327 44.144137 C 63.815785 43.732678 64.347035 43.316012 64.753285 42.88372 C 65.164744 42.456637 65.508494 41.753511 65.789744 40.779553 L 73.263703 14.3108 L 72.289745 11.066007 C 72.081411 10.456632 71.977245 9.862882 71.977245 9.284757 C 71.977245 8.555591 72.21162 8.029549 72.68037 7.701424 C 73.14912 7.373299 73.878286 7.206632 74.862662 7.206632 L 84.347038 7.206632 C 85.570996 7.206632 86.477246 7.477465 87.065788 8.013924 C 87.664747 8.539966 88.149122 9.461841 88.518913 10.763924 L 94.649123 31.102468 L 111.248083 10.451424 C 112.305375 9.144132 113.341833 8.279549 114.357458 7.847257 C 115.3835 7.420174 116.732459 7.206632 118.409542 7.206632 Z M 149.883505 15.597258 C 154.581422 15.597258 158.336631 16.461842 161.159548 18.196217 C 163.982465 19.930592 165.393923 22.576426 165.393923 26.138926 C 165.393923 27.482676 165.143923 29.013926 164.643923 30.727468 L 162.133506 39.175386 C 162.09184 39.347261 162.071006 39.550386 162.071006 39.78997 C 162.071006 40.44622 162.34184 40.779553 162.878298 40.779553 C 163.367881 40.779553 163.77934 40.560803 164.12309 40.13372 C 164.472048 39.706636 164.706423 39.493095 164.836632 39.493095 C 165.039757 39.493095 165.206423 39.63372 165.347048 39.925386 C 165.49809 40.206636 165.571007 40.529553 165.571007 40.899345 C 165.612673 41.993095 165.190798 43.112887 164.315798 44.263928 C 163.43559 45.409762 162.263715 46.35247 160.784548 47.086846 C 159.321006 47.816012 157.711631 48.180596 155.956422 48.180596 C 153.831422 48.180596 152.013713 47.795179 150.498088 47.029554 C 148.99288 46.248304 147.951213 45.10247 147.373088 43.586845 C 146.143921 45.066012 144.696004 46.201429 143.01892 46.998304 C 141.357462 47.784762 139.560587 48.180596 137.638711 48.180596 C 135.472044 48.180596 133.654336 47.758721 132.180377 46.925387 C 130.716836 46.086845 129.623085 45.003512 128.904335 43.680595 C 128.196002 42.35247 127.841835 40.956636 127.841835 39.493095 C 127.841835 38.831636 127.904335 38.201428 128.024127 37.592053 C 128.680377 34.769136 130.102252 32.649344 132.284544 31.22226 C 134.466836 29.78476 137.071003 29.071218 140.091837 29.071218 C 143.477254 29.071218 146.810588 29.602468 150.081421 30.670177 L 151.602255 26.618093 C 152.133505 24.899343 152.39913 23.576426 152.39913 22.638926 C 152.357463 21.659759 152.029338 20.930592 151.409547 20.441009 C 150.800171 19.951425 149.862671 19.706634 148.597046 19.706634 C 148.847046 20.357675 148.972046 21.02955 148.972046 21.727467 C 148.972046 23.232676 148.399129 24.539968 147.253296 25.644134 C 146.107463 26.75351 144.472046 27.305593 142.347045 27.305593 C 140.352253 27.305593 138.794962 26.868093 137.669961 25.987884 C 136.539753 25.102468 135.977253 24.003509 135.977253 22.696217 C 135.977253 20.664967 137.117878 18.977467 139.404337 17.628508 C 141.696004 16.274342 145.190796 15.597258 149.883505 15.597258 Z M 146.461629 34.154552 C 145.315796 34.154552 144.383504 34.592052 143.664754 35.467052 C 142.95642 36.347261 142.602254 37.300386 142.602254 38.326428 C 142.602254 38.972261 142.753295 39.503511 143.05017 39.909761 C 143.357462 40.32122 143.805379 40.524345 144.383504 40.524345 C 144.909546 40.524345 145.487671 40.310803 146.117879 39.878511 C 146.753296 39.451428 147.216838 38.810803 147.508504 37.951428 L 148.794963 34.347261 C 148.097046 34.217052 147.315796 34.154552 146.461629 34.154552 Z M 201.029345 15.597258 C 203.321012 15.597258 205.154345 16.295175 206.518929 17.691008 C 207.883512 19.076425 208.565804 20.789967 208.565804 22.831634 C 208.565804 23.602467 208.487679 24.316009 208.326221 24.972259 C 207.919971 26.644135 207.143929 27.930593 205.992887 28.831635 C 204.847053 29.727468 203.477262 30.175385 201.883511 30.175385 C 200.336636 30.175385 199.164761 29.810802 198.367886 29.081635 C 197.571011 28.34726 196.867886 27.362885 196.258511 26.138926 C 195.930386 25.441009 195.623094 24.930593 195.331427 24.612884 C 195.055386 24.284759 194.732469 24.118093 194.362677 24.118093 C 193.951219 24.118093 193.591844 24.284759 193.284552 24.612884 C 192.97726 24.930593 192.701219 25.498301 192.461635 26.316009 L 187.737676 41.628511 C 187.659551 41.831636 187.617885 42.13372 187.617885 42.53997 C 187.617885 43.081637 187.774135 43.524345 188.081426 43.873303 C 188.388718 44.211845 188.810593 44.545179 189.336635 44.873304 C 189.826218 45.201429 190.149135 45.472262 190.310593 45.680595 C 190.47726 45.88372 190.544968 46.144137 190.503302 46.472262 C 190.41476 47.003512 190.112677 47.394137 189.607468 47.638929 C 189.097051 47.878512 188.232468 47.998304 187.003301 47.998304 L 171.331424 47.998304 C 170.263716 47.998304 169.498091 47.826429 169.02934 47.477471 C 168.56059 47.128512 168.388715 46.670179 168.508507 46.10247 C 168.675174 45.612887 169.102257 45.185804 169.794966 44.816012 C 170.409549 44.487887 170.925174 44.097262 171.331424 43.649345 C 171.742883 43.201428 172.086633 42.487887 172.362674 41.50872 L 177.821008 23.805592 C 177.904342 23.607676 177.9408 23.321217 177.9408 22.951426 C 177.9408 22.503509 177.84705 22.159759 177.65955 21.920176 C 177.477258 21.670176 177.185592 21.362884 176.774133 20.993092 C 176.367883 20.664967 176.076216 20.378509 175.90955 20.138925 C 175.748091 19.894134 175.732466 19.5608 175.862675 19.15455 C 176.102258 18.21705 177.383508 17.388925 179.706425 16.670175 C 182.039759 15.956633 184.472051 15.597258 187.003301 15.597258 C 188.680385 15.597258 190.065802 15.972258 191.159552 16.732675 C 192.268927 17.487883 192.987677 18.5608 193.315802 19.946217 C 195.279344 17.045175 197.852261 15.597258 201.029345 15.597258 Z M 225.404348 15.597258 C 227.779348 15.597258 229.513723 16.045175 230.612682 16.941008 C 231.716849 17.836842 232.268932 19.066009 232.268932 20.618092 C 232.268932 21.555592 232.123099 22.456634 231.83664 23.310801 L 226.201223 41.628511 C 226.081431 42.118095 226.018931 42.545178 226.018931 42.91497 C 226.018931 43.44622 226.11789 43.862887 226.321015 44.170178 C 226.529348 44.482678 226.815806 44.774345 227.185598 45.055595 C 227.466848 45.342054 227.664765 45.581637 227.784556 45.774345 C 227.914765 45.951429 227.940806 46.185804 227.857473 46.472262 C 227.64914 47.003512 227.237681 47.394137 226.61789 47.638929 C 226.008515 47.878512 225.071014 47.998304 223.805389 47.998304 L 209.852262 47.998304 C 208.789762 47.998304 208.008512 47.826429 207.524137 47.477471 C 207.034554 47.128512 206.867887 46.670179 207.029345 46.10247 C 207.196012 45.612887 207.628304 45.185804 208.315804 44.816012 C 208.930387 44.487887 209.446012 44.097262 209.852262 43.649345 C 210.263721 43.201428 210.607471 42.487887 210.888721 41.50872 L 216.227263 23.805592 C 216.347055 23.435801 216.404347 23.133717 216.404347 22.894134 C 216.404347 22.446217 216.30018 22.086842 216.091847 21.816009 C 215.888722 21.545176 215.586638 21.274342 215.180388 20.993092 C 214.76893 20.664967 214.482471 20.378509 214.310596 20.138925 C 214.149138 19.894134 214.133513 19.5608 214.253305 19.15455 C 214.498096 18.21705 215.784555 17.388925 218.107472 16.670175 C 220.440805 15.956633 222.873097 15.597258 225.404348 15.597258 Z M 229.518932 2.060798 C 231.102265 2.060798 232.425182 2.58684 233.482474 3.633715 C 234.550182 4.670173 235.081432 5.941007 235.081432 7.446215 C 235.081432 8.513924 234.805391 9.560799 234.258516 10.586841 C 233.711641 11.602466 232.935599 12.430591 231.925182 13.066008 C 230.93039 13.696216 229.815807 14.008716 228.591848 14.008716 C 227.044973 14.008716 225.748098 13.493091 224.701223 12.456633 C 223.664764 11.409758 223.128306 10.107674 223.086639 8.550382 C 223.086639 7.534757 223.352264 6.529549 223.883514 5.529548 C 224.409556 4.52434 225.164764 3.696215 226.138723 3.050381 C 227.128306 2.388923 228.253307 2.060798 229.518932 2.060798 Z M 256.461643 15.597258 C 261.154352 15.597258 264.91477 16.461842 267.732478 18.196217 C 270.555395 19.930592 271.966854 22.576426 271.966854 26.138926 C 271.966854 27.482676 271.716854 29.013926 271.216854 30.727468 L 268.706437 39.175386 C 268.66477 39.347261 268.649145 39.550386 268.649145 39.78997 C 268.649145 40.44622 268.91477 40.779553 269.456437 40.779553 C 269.940812 40.779553 270.357479 40.560803 270.69602 40.13372 C 271.044979 39.706636 271.284562 39.493095 271.41477 39.493095 C 271.612687 39.493095 271.784562 39.63372 271.919979 39.925386 C 272.071021 40.206636 272.143937 40.529553 272.143937 40.899345 C 272.185604 41.993095 271.768937 43.112887 270.888729 44.263928 C 270.013729 45.409762 268.836645 46.35247 267.362687 47.086846 C 265.893936 47.816012 264.284561 48.180596 262.529353 48.180596 C 260.409561 48.180596 258.586644 47.795179 257.071019 47.029554 C 255.56581 46.248304 254.524143 45.10247 253.946018 43.586845 C 252.72206 45.066012 251.268934 46.201429 249.597059 46.998304 C 247.930392 47.784762 246.138725 48.180596 244.211642 48.180596 C 242.050183 48.180596 240.232475 47.758721 238.753308 46.925387 C 237.289766 46.086845 236.196016 45.003512 235.482474 43.680595 C 234.774141 42.35247 234.419974 40.956636 234.419974 39.493095 C 234.419974 38.831636 234.477266 38.201428 234.597057 37.592053 C 235.253307 34.769136 236.675183 32.649344 238.857475 31.22226 C 241.044975 29.78476 243.643934 29.071218 246.664767 29.071218 C 250.055393 29.071218 253.383518 29.602468 256.654352 30.670177 L 258.180394 26.618093 C 258.706435 24.899343 258.97206 23.576426 258.97206 22.638926 C 258.930394 21.659759 258.602269 20.930592 257.987685 20.441009 C 257.37831 19.951425 256.44081 19.706634 255.175185 19.706634 C 255.425185 20.357675 255.550185 21.02955 255.550185 21.727467 C 255.550185 23.232676 254.97206 24.539968 253.826226 25.644134 C 252.680393 26.75351 251.044976 27.305593 248.925184 27.305593 C 246.930392 27.305593 245.367892 26.868093 244.242892 25.987884 C 243.117892 25.102468 242.555392 24.003509 242.555392 22.696217 C 242.555392 20.664967 243.696017 18.977467 245.977267 17.628508 C 248.268934 16.274342 251.763726 15.597258 256.461643 15.597258 Z M 253.03456 34.154552 C 251.888726 34.154552 250.956434 34.592052 250.237684 35.467052 C 249.529351 36.347261 249.175184 37.300386 249.175184 38.326428 C 249.175184 38.972261 249.326226 39.503511 249.628309 39.909761 C 249.935601 40.32122 250.378309 40.524345 250.956434 40.524345 C 251.487685 40.524345 252.06581 40.310803 252.69081 39.878511 C 253.331435 39.451428 253.794976 38.810803 254.081435 37.951428 L 255.367893 34.347261 C 254.669977 34.217052 253.893935 34.154552 253.03456 34.154552 Z M 291.73769 5.425382 C 293.534565 5.425382 295.086649 6.102465 296.388732 7.46184 C 297.706441 8.805591 298.362691 10.581632 298.362691 12.784758 C 298.362691 13.644133 298.237691 14.5608 297.992899 15.534758 C 297.539774 17.368092 296.732482 18.956634 295.565815 20.289967 C 294.409565 21.618092 293.076232 22.618092 291.560606 23.295176 C 290.044981 23.967051 288.576231 24.300384 287.149147 24.300384 C 285.472064 24.300384 284.63873 23.810801 284.63873 22.831634 C 284.63873 22.581634 284.659564 22.399342 284.696022 22.279551 C 284.826231 21.831634 285.071022 21.451426 285.430397 21.144134 C 285.800189 20.836842 286.373106 20.414967 287.149147 19.888925 C 288.044981 19.227467 288.701231 18.696217 289.107481 18.284758 C 289.518939 17.878508 289.722064 17.388925 289.722064 16.821217 C 289.722064 16.451425 289.607481 16.086841 289.378314 15.732675 C 289.159564 15.362883 288.805398 14.868091 288.315814 14.2483 C 287.659564 13.394133 287.164772 12.680591 286.836647 12.112883 C 286.513731 11.534758 286.357481 10.878507 286.357481 10.154549 C 286.357481 9.701424 286.414772 9.274341 286.534564 8.868091 C 286.862689 7.758715 287.477273 6.914965 288.373106 6.326424 C 289.274148 5.727465 290.39394 5.425382 291.73769 5.425382 Z M 319.190818 15.039966 C 322.581444 15.039966 325.503319 15.352466 327.966861 15.96705 C 330.44082 16.576425 332.341862 17.4358 333.664779 18.539967 C 334.992904 19.638925 335.654362 20.883717 335.654362 22.279551 C 335.654362 23.706634 335.091862 24.868093 333.966862 25.763926 C 332.84707 26.65976 331.289778 27.107676 329.28457 27.107676 C 327.248111 27.107676 325.524152 26.602468 324.112694 25.586843 C 322.706444 24.555593 322.003319 23.269134 322.003319 21.727467 C 322.003319 21.196217 322.081444 20.6858 322.242902 20.1858 C 321.513735 19.987884 320.862694 19.888925 320.284568 19.888925 C 319.263735 19.888925 318.419985 20.133717 317.737693 20.618092 C 317.071026 21.107675 316.758526 21.800384 316.800193 22.696217 C 316.800193 23.763926 317.326235 24.664968 318.383527 25.404551 C 319.451235 26.133718 321.164777 27.050385 323.529361 28.154551 C 325.571027 29.055593 327.253319 29.883718 328.581445 30.638927 C 329.90957 31.394135 331.029362 32.34726 331.946028 33.493094 C 332.873112 34.633719 333.336653 35.977469 333.336653 37.534761 C 333.336653 37.852469 333.25332 38.461844 333.081445 39.357678 C 332.435612 42.097262 330.617903 44.269137 327.638736 45.862887 C 324.659569 47.446221 320.737694 48.237887 315.87311 48.237887 C 310.409567 48.237887 306.071025 47.508721 302.862691 46.03997 C 299.649149 44.566012 298.044982 42.53997 298.044982 39.972261 C 298.044982 38.217053 298.576232 36.888928 299.633524 35.993094 C 300.696024 35.097261 302.112691 34.644136 303.878316 34.644136 C 305.909567 34.644136 307.64915 35.279552 309.097067 36.545177 C 310.550192 37.810803 311.279359 39.425386 311.279359 41.388928 C 311.279359 41.920178 311.222067 42.467053 311.102276 43.034762 C 312.076234 43.284762 313.013734 43.409762 313.909568 43.409762 C 314.977276 43.409762 315.857485 43.123303 316.544985 42.555595 C 317.242901 41.97747 317.59186 41.180595 317.59186 40.16497 C 317.550193 39.227469 317.081443 38.420178 316.18561 37.743094 C 315.289776 37.066011 313.857484 36.258719 311.893942 35.321219 C 310.060609 34.461844 308.550192 33.65976 307.362692 32.90976 C 306.175192 32.154552 305.164775 31.201427 304.326233 30.055593 C 303.487691 28.90976 303.071025 27.560801 303.071025 26.019134 C 303.071025 22.670176 304.466858 20.003509 307.258525 18.019133 C 310.060609 16.034758 314.034568 15.039966 319.190818 15.039966 Z M 319.190818 15.039966 " stroke="#ffa600" stroke-width="2.296957" stroke-opacity="1" stroke-miterlimit="4"/><g fill="#475569" fill-opacity="1"><g transform="translate(106.954839, 185.006734)"><g><path d="M 7.9375 -6.230469 L 7.9375 -3.734375 C 7.914062 -2.992188 7.765625 -2.324219 7.492188 -1.753906 C 7.269531 -1.261719 6.921875 -0.792969 6.429688 -0.421875 C 5.933594 -0.0234375 5.265625 0.199219 4.375 0.199219 C 3.488281 0.199219 2.792969 -0.0234375 2.300781 -0.421875 C 1.804688 -0.792969 1.484375 -1.261719 1.261719 -1.753906 C 0.988281 -2.324219 0.839844 -2.992188 0.816406 -3.734375 L 0.816406 -14.441406 C 0.839844 -15.15625 0.988281 -15.824219 1.261719 -16.394531 C 1.484375 -16.886719 1.804688 -17.382812 2.300781 -17.753906 C 2.792969 -18.125 3.488281 -18.371094 4.375 -18.371094 C 5.265625 -18.371094 5.933594 -18.125 6.429688 -17.753906 C 6.921875 -17.382812 7.269531 -16.886719 7.492188 -16.394531 C 7.765625 -15.824219 7.914062 -15.15625 7.9375 -14.441406 L 7.9375 -11.941406 L 5.441406 -11.941406 L 5.441406 -14.441406 C 5.441406 -14.933594 5.316406 -15.28125 5.042969 -15.578125 C 4.921875 -15.703125 4.699219 -15.777344 4.425781 -15.777344 C 3.957031 -15.777344 3.734375 -15.429688 3.609375 -15.109375 C 3.535156 -14.910156 3.511719 -14.6875 3.488281 -14.441406 L 3.488281 -3.734375 C 3.511719 -3.214844 3.660156 -2.867188 3.90625 -2.597656 C 4.03125 -2.472656 4.203125 -2.398438 4.425781 -2.398438 C 4.996094 -2.398438 5.21875 -2.695312 5.339844 -3.066406 C 5.414062 -3.238281 5.441406 -3.460938 5.441406 -3.734375 L 5.441406 -6.230469 Z M 7.9375 -6.230469 "/></g></g></g><g fill="#475569" fill-opacity="1"><g transform="translate(117.979868, 185.006734)"><g><path d="M 0.988281 -18.175781 L 3.660156 -18.175781 L 3.660156 -2.472656 L 7.195312 -2.472656 L 7.195312 0 L 0.988281 0 Z M 0.988281 -18.175781 "/></g></g></g><g fill="#475569" fill-opacity="1"><g transform="translate(127.744305, 185.006734)"><g><path d="M 0.988281 -18.175781 L 7.097656 -18.175781 L 7.097656 -15.429688 L 3.660156 -15.429688 L 3.660156 -10.65625 L 6.132812 -10.65625 L 6.132812 -7.738281 L 3.660156 -7.738281 L 3.660156 -2.746094 L 7.097656 -2.746094 L 7.097656 0 L 0.988281 0 Z M 0.988281 -18.175781 "/></g></g></g><g fill="#475569" fill-opacity="1"><g transform="translate(137.805353, 185.006734)"><g><path d="M 0.246094 0 L 2.992188 -18.175781 L 6.257812 -18.175781 L 9 0 L 6.40625 0 L 5.910156 -3.710938 L 3.339844 -3.710938 L 2.84375 0 Z M 4.773438 -12.265625 L 4.699219 -12.734375 L 4.550781 -12.734375 L 4.476562 -12.265625 L 3.710938 -6.527344 L 5.539062 -6.527344 Z M 4.773438 -12.265625 "/></g></g></g><g fill="#475569" fill-opacity="1"><g transform="translate(149.522468, 185.006734)"><g><path d="M 3.808594 -9.46875 L 3.585938 -10.3125 L 3.4375 -10.3125 L 3.4375 0 L 0.988281 0 L 0.988281 -18.175781 L 3.363281 -18.175781 L 5.960938 -8.703125 L 6.183594 -7.863281 L 6.332031 -7.863281 L 6.332031 -18.175781 L 8.777344 -18.175781 L 8.777344 0 L 6.40625 0 Z M 3.808594 -9.46875 "/></g></g></g><g fill="#475569" fill-opacity="1"><g transform="translate(161.75865, 185.006734)"><g><path d="M 0.988281 -18.175781 L 3.660156 -18.175781 L 3.660156 0 L 0.988281 0 Z M 0.988281 -18.175781 "/></g></g></g><g fill="#475569" fill-opacity="1"><g transform="translate(168.87832, 185.006734)"><g><path d="M 3.808594 -9.46875 L 3.585938 -10.3125 L 3.4375 -10.3125 L 3.4375 0 L 0.988281 0 L 0.988281 -18.175781 L 3.363281 -18.175781 L 5.960938 -8.703125 L 6.183594 -7.863281 L 6.332031 -7.863281 L 6.332031 -18.175781 L 8.777344 -18.175781 L 8.777344 0 L 6.40625 0 Z M 3.808594 -9.46875 "/></g></g></g><g fill="#475569" fill-opacity="1"><g transform="translate(181.114502, 185.006734)"><g><path d="M 5.265625 -11.644531 L 5.265625 -14.441406 C 5.265625 -14.933594 5.167969 -15.28125 4.921875 -15.578125 C 4.796875 -15.703125 4.597656 -15.777344 4.375 -15.777344 C 3.90625 -15.777344 3.683594 -15.429688 3.585938 -15.109375 C 3.511719 -14.910156 3.488281 -14.6875 3.488281 -14.441406 L 3.488281 -3.511719 C 3.488281 -2.992188 3.609375 -2.644531 3.855469 -2.375 C 3.980469 -2.25 4.152344 -2.175781 4.375 -2.175781 C 4.847656 -2.175781 5.070312 -2.472656 5.167969 -2.84375 C 5.242188 -3.015625 5.265625 -3.238281 5.265625 -3.511719 L 5.265625 -6.800781 L 4.203125 -6.800781 L 4.203125 -9.050781 L 7.9375 -9.050781 L 7.9375 0 L 6.355469 0 L 6.035156 -0.867188 C 5.539062 -0.246094 4.820312 0.199219 3.957031 0.199219 C 3.089844 0.199219 2.496094 -0.0234375 2.050781 -0.421875 C 1.605469 -0.792969 1.308594 -1.261719 1.113281 -1.753906 C 0.890625 -2.324219 0.792969 -2.992188 0.816406 -3.734375 L 0.816406 -14.441406 C 0.839844 -15.15625 0.988281 -15.824219 1.261719 -16.394531 C 1.484375 -16.886719 1.804688 -17.382812 2.300781 -17.753906 C 2.792969 -18.125 3.488281 -18.371094 4.375 -18.371094 C 5.265625 -18.371094 5.933594 -18.125 6.429688 -17.753906 C 6.921875 -17.382812 7.269531 -16.886719 7.492188 -16.394531 C 7.765625 -15.824219 7.914062 -15.15625 7.9375 -14.441406 L 7.9375 -11.644531 Z M 5.265625 -11.644531 "/></g></g></g><g fill="#475569" fill-opacity="1"><g transform="translate(192.485574, 185.006734)"><g/></g></g><g fill="#475569" fill-opacity="1"><g transform="translate(198.764857, 185.006734)"><g><path d="M 5.414062 -13.304688 C 5.414062 -13.898438 5.390625 -14.5625 5.21875 -15.082031 C 5.042969 -15.578125 4.773438 -15.925781 4.351562 -15.925781 C 3.660156 -15.898438 3.4375 -15.183594 3.4375 -14.121094 C 3.4375 -13.5 3.710938 -12.859375 4.105469 -12.164062 C 4.5 -11.472656 5.019531 -10.757812 5.539062 -9.988281 C 6.15625 -9.074219 6.773438 -8.136719 7.246094 -7.21875 C 7.714844 -6.304688 8.035156 -5.367188 8.035156 -4.375 C 8.035156 -3.164062 7.839844 -2.027344 7.269531 -1.1875 C 6.699219 -0.347656 5.785156 0.199219 4.328125 0.199219 C 2.621094 0.199219 1.65625 -0.445312 1.113281 -1.433594 C 0.570312 -2.421875 0.445312 -3.734375 0.445312 -5.09375 L 3.066406 -5.339844 C 3.066406 -4.574219 3.089844 -3.808594 3.289062 -3.238281 C 3.460938 -2.644531 3.757812 -2.25 4.328125 -2.25 C 5.117188 -2.25 5.414062 -3.089844 5.414062 -4.253906 C 5.414062 -4.847656 5.117188 -5.539062 4.722656 -6.257812 C 4.5 -6.601562 4.277344 -6.972656 4.03125 -7.34375 C 3.511719 -8.085938 2.941406 -8.925781 2.347656 -9.839844 C 1.753906 -10.757812 1.308594 -11.695312 1.039062 -12.660156 C 0.890625 -13.128906 0.816406 -13.625 0.816406 -14.121094 C 0.816406 -15.109375 1.039062 -16.171875 1.605469 -16.988281 C 2.175781 -17.777344 3.042969 -18.347656 4.300781 -18.371094 C 5.910156 -18.398438 6.847656 -17.730469 7.367188 -16.765625 C 7.886719 -15.777344 8.035156 -14.5625 8.035156 -13.550781 Z M 5.414062 -13.304688 "/></g></g></g><g fill="#475569" fill-opacity="1"><g transform="translate(209.715737, 185.006734)"><g><path d="M 0.988281 -18.175781 L 7.097656 -18.175781 L 7.097656 -15.429688 L 3.660156 -15.429688 L 3.660156 -10.65625 L 6.132812 -10.65625 L 6.132812 -7.738281 L 3.660156 -7.738281 L 3.660156 -2.746094 L 7.097656 -2.746094 L 7.097656 0 L 0.988281 0 Z M 0.988281 -18.175781 "/></g></g></g><g fill="#475569" fill-opacity="1"><g transform="translate(219.776788, 185.006734)"><g><path d="M 5.761719 0 L 4.375 -7.664062 L 3.660156 -7.664062 L 3.660156 0 L 0.988281 0 L 0.988281 -18.175781 L 3.660156 -18.175781 C 6.847656 -18.175781 8.210938 -16.371094 8.210938 -12.933594 C 8.210938 -11.128906 7.738281 -9.496094 6.726562 -8.804688 L 8.433594 0 Z M 3.660156 -10.136719 C 4.03125 -10.136719 4.523438 -10.1875 4.921875 -10.535156 C 5.316406 -10.878906 5.636719 -11.546875 5.636719 -12.832031 C 5.636719 -14.121094 5.316406 -14.8125 4.921875 -15.15625 C 4.523438 -15.503906 4.03125 -15.527344 3.660156 -15.527344 Z M 3.660156 -10.136719 "/></g></g></g><g fill="#475569" fill-opacity="1"><g transform="translate(231.172574, 185.006734)"><g><path d="M 5.835938 -18.175781 L 8.433594 -18.175781 L 5.664062 0 L 2.992188 0 L 0.222656 -18.175781 L 2.820312 -18.175781 L 4.152344 -8.183594 L 4.253906 -7.417969 L 4.402344 -7.417969 L 4.5 -8.183594 Z M 5.835938 -18.175781 "/></g></g></g><g fill="#475569" fill-opacity="1"><g transform="translate(242.296474, 185.006734)"><g><path d="M 0.988281 -18.175781 L 3.660156 -18.175781 L 3.660156 0 L 0.988281 0 Z M 0.988281 -18.175781 "/></g></g></g><g fill="#475569" fill-opacity="1"><g transform="translate(249.416148, 185.006734)"><g><path d="M 7.9375 -6.230469 L 7.9375 -3.734375 C 7.914062 -2.992188 7.765625 -2.324219 7.492188 -1.753906 C 7.269531 -1.261719 6.921875 -0.792969 6.429688 -0.421875 C 5.933594 -0.0234375 5.265625 0.199219 4.375 0.199219 C 3.488281 0.199219 2.792969 -0.0234375 2.300781 -0.421875 C 1.804688 -0.792969 1.484375 -1.261719 1.261719 -1.753906 C 0.988281 -2.324219 0.839844 -2.992188 0.816406 -3.734375 L 0.816406 -14.441406 C 0.839844 -15.15625 0.988281 -15.824219 1.261719 -16.394531 C 1.484375 -16.886719 1.804688 -17.382812 2.300781 -17.753906 C 2.792969 -18.125 3.488281 -18.371094 4.375 -18.371094 C 5.265625 -18.371094 5.933594 -18.125 6.429688 -17.753906 C 6.921875 -17.382812 7.269531 -16.886719 7.492188 -16.394531 C 7.765625 -15.824219 7.914062 -15.15625 7.9375 -14.441406 L 7.9375 -11.941406 L 5.441406 -11.941406 L 5.441406 -14.441406 C 5.441406 -14.933594 5.316406 -15.28125 5.042969 -15.578125 C 4.921875 -15.703125 4.699219 -15.777344 4.425781 -15.777344 C 3.957031 -15.777344 3.734375 -15.429688 3.609375 -15.109375 C 3.535156 -14.910156 3.511719 -14.6875 3.488281 -14.441406 L 3.488281 -3.734375 C 3.511719 -3.214844 3.660156 -2.867188 3.90625 -2.597656 C 4.03125 -2.472656 4.203125 -2.398438 4.425781 -2.398438 C 4.996094 -2.398438 5.21875 -2.695312 5.339844 -3.066406 C 5.414062 -3.238281 5.441406 -3.460938 5.441406 -3.734375 L 5.441406 -6.230469 Z M 7.9375 -6.230469 "/></g></g></g><g fill="#475569" fill-opacity="1"><g transform="translate(260.441182, 185.006734)"><g><path d="M 0.988281 -18.175781 L 7.097656 -18.175781 L 7.097656 -15.429688 L 3.660156 -15.429688 L 3.660156 -10.65625 L 6.132812 -10.65625 L 6.132812 -7.738281 L 3.660156 -7.738281 L 3.660156 -2.746094 L 7.097656 -2.746094 L 7.097656 0 L 0.988281 0 Z M 0.988281 -18.175781 "/></g></g></g></svg>