<svg id="visual" viewBox="0 0 900 600" width="900" height="600" xmlns="http://www.w3.org/2000/svg" xmlns:xlink="http://www.w3.org/1999/xlink" version="1.1"><g transform="translate(887.5978457397099 -34.084871372357384)"><path d="M202.2 -280.1C248.8 -244.4 264.2 -167.6 247.2 -107C230.2 -46.4 180.7 -1.9 160.7 50C140.8 101.8 150.3 160.9 128.5 221.1C106.6 281.4 53.3 342.7 -17.4 366.7C-88.2 390.7 -176.3 377.4 -185.3 312.9C-194.2 248.5 -123.8 132.9 -121.6 58.7C-119.4 -15.6 -185.2 -48.6 -213.2 -102.3C-241.3 -156.1 -231.4 -230.5 -189.6 -267.8C-147.7 -305 -73.9 -305 2 -307.7C77.8 -310.4 155.6 -315.8 202.2 -280.1" fill="none" stroke="#ffa600" stroke-width="6"></path></g></svg>