<svg id="visual" viewBox="0 0 900 600" width="900" height="600" xmlns="http://www.w3.org/2000/svg" xmlns:xlink="http://www.w3.org/1999/xlink" version="1.1"><g transform="translate(931.922435731356 78.88343141999107)"><path d="M180 -306.6C238.8 -205.1 295.8 -159.9 382.8 -80C469.8 -0.2 586.8 114.2 573 195.2C559.1 276.2 414.5 323.8 297.2 362C179.9 400.2 89.9 429.1 -5.9 437.2C-101.7 445.3 -203.4 432.6 -267.4 377.1C-331.4 321.5 -357.8 223.2 -437.8 110.7C-517.7 -1.8 -651.2 -128.3 -636.9 -217.6C-622.6 -307 -460.6 -359 -329.8 -437.1C-199.1 -515.3 -99.5 -619.7 -19.5 -592.9C60.6 -566.1 121.2 -408.2 180 -306.6" fill="#ffa60078"></path></g></svg>