<svg xmlns="http://www.w3.org/2000/svg" xmlns:xlink="http://www.w3.org/1999/xlink" width="900" zoomAndPan="magnify" viewBox="0 0 675 449.999984" height="600" preserveAspectRatio="xMidYMid meet" version="1.0"><defs><clipPath id="50129edb1c"><path d="M 222 45 L 486.652344 45 L 486.652344 267.75 L 222 267.75 Z M 222 45 " clip-rule="nonzero"/></clipPath><clipPath id="33890b0fb3"><path d="M 195.207031 120 L 413.457031 120 L 413.457031 299.925781 L 195.207031 299.925781 Z M 195.207031 120 " clip-rule="nonzero"/></clipPath></defs><g clip-path="url(#50129edb1c)"><path fill="#fdefd7" d="M 260.710938 259.3125 C 258.636719 258.277344 256.542969 257.355469 254.566406 256.234375 C 252.140625 254.859375 249.710938 253.4375 247.433594 251.828125 C 245.390625 250.390625 243.515625 248.699219 241.625 247.058594 C 240.519531 246.085938 239.464844 245.03125 238.496094 243.929688 C 237.105469 242.320312 235.734375 240.695312 234.476562 238.972656 C 233.203125 237.214844 232.015625 235.375 230.910156 233.496094 C 229.90625 231.808594 228.984375 230.050781 228.183594 228.273438 C 226.84375 225.3125 225.46875 222.347656 224.433594 219.285156 C 223.613281 216.890625 223.277344 214.347656 222.722656 211.867188 C 221.902344 208.117188 222.003906 204.316406 222.070312 200.515625 C 222.105469 199.195312 222.371094 197.871094 222.574219 196.550781 C 222.707031 195.695312 222.875 194.84375 223.058594 193.988281 C 223.328125 192.699219 223.578125 191.425781 223.894531 190.15625 C 224.363281 188.3125 224.867188 186.488281 225.402344 184.664062 C 225.671875 183.777344 226.054688 182.921875 226.390625 182.066406 C 227.410156 179.40625 228.582031 176.8125 230.125 174.402344 C 231.328125 172.507812 232.433594 170.550781 233.691406 168.691406 C 234.996094 166.765625 236.367188 164.859375 237.84375 163.050781 C 239.367188 161.15625 240.972656 159.28125 242.679688 157.558594 C 243.652344 156.585938 244.523438 155.550781 245.390625 154.511719 C 246.480469 153.207031 247.871094 152.152344 249.058594 150.929688 C 250.765625 149.171875 252.523438 147.445312 254.066406 145.554688 C 255.804688 143.429688 257.464844 141.203125 258.902344 138.859375 C 260.089844 136.917969 260.980469 134.757812 261.847656 132.648438 C 262.585938 130.890625 263.136719 129.046875 263.722656 127.222656 C 263.957031 126.46875 264.058594 125.683594 264.210938 124.914062 C 264.394531 123.957031 264.5625 122.988281 264.730469 122.03125 C 264.894531 121.0625 265.03125 120.089844 265.214844 119.136719 C 265.414062 118.046875 265.632812 116.976562 265.851562 115.890625 C 265.867188 115.839844 265.867188 115.789062 265.867188 115.738281 C 265.984375 114.164062 266.050781 112.589844 266.21875 111.015625 C 266.402344 109.160156 266.652344 107.300781 266.871094 105.441406 C 266.988281 104.488281 267.039062 103.515625 267.222656 102.5625 C 267.574219 100.6875 267.84375 98.761719 268.429688 96.953125 C 269.148438 94.761719 270.003906 92.566406 271.105469 90.542969 C 272.179688 88.582031 273.550781 86.757812 274.976562 85.035156 C 277.015625 82.558594 279.578125 80.566406 282.089844 78.589844 C 283.8125 77.234375 285.738281 76.109375 287.597656 74.9375 C 288.851562 74.152344 290.160156 73.464844 291.464844 72.746094 C 292.871094 71.976562 294.226562 71.054688 295.71875 70.46875 C 298.445312 69.398438 301.257812 68.476562 304.054688 67.554688 C 305.613281 67.054688 307.183594 66.585938 308.777344 66.25 C 310.785156 65.832031 312.84375 65.5625 314.871094 65.195312 C 315.789062 65.027344 316.710938 64.777344 317.632812 64.578125 C 317.714844 64.558594 317.78125 64.542969 317.867188 64.542969 C 319.65625 64.425781 321.449219 64.308594 323.257812 64.207031 C 325.132812 64.089844 327.023438 63.855469 328.898438 63.90625 C 330.875 63.972656 332.851562 64.324219 334.808594 64.542969 C 335.109375 64.578125 335.429688 64.558594 335.730469 64.542969 C 337.753906 64.460938 339.679688 64.929688 341.605469 65.496094 C 343.046875 65.914062 344.585938 66.015625 346.074219 66.21875 C 347.96875 66.46875 349.84375 66.6875 351.734375 66.886719 C 352.238281 66.9375 352.738281 66.886719 353.242188 66.886719 C 354.964844 66.886719 356.707031 66.953125 358.429688 66.871094 C 359.667969 66.804688 360.890625 66.5 362.113281 66.300781 C 362.214844 66.285156 362.316406 66.21875 362.414062 66.234375 C 363.871094 66.316406 365.246094 65.796875 366.667969 65.613281 C 368.492188 65.378906 370.199219 64.894531 371.890625 64.242188 C 373.597656 63.570312 375.304688 62.902344 376.980469 62.164062 C 378.839844 61.34375 380.695312 60.457031 382.503906 59.539062 C 384.113281 58.699219 385.621094 57.644531 387.277344 56.890625 C 389.585938 55.835938 392.015625 55 394.359375 53.996094 C 395.796875 53.375 397.1875 52.621094 398.609375 51.9375 C 399.195312 51.652344 399.78125 51.417969 400.386719 51.167969 C 402.8125 50.179688 405.222656 49.105469 407.703125 48.21875 C 409.976562 47.417969 412.273438 46.628906 414.632812 46.195312 C 417.410156 45.675781 420.191406 45.054688 423.085938 45.105469 C 424.996094 45.140625 426.835938 45.441406 428.660156 45.84375 C 430.621094 46.292969 432.511719 47.015625 434.4375 47.652344 C 436.664062 48.386719 438.707031 49.542969 440.664062 50.78125 C 442.839844 52.171875 444.800781 53.792969 446.777344 55.46875 C 449.957031 58.148438 452.265625 61.460938 454.34375 64.976562 C 455.515625 66.953125 456.585938 69.011719 457.523438 71.105469 C 458.695312 73.75 459.75 76.429688 460.703125 79.160156 C 461.390625 81.132812 461.84375 83.210938 462.414062 85.234375 C 462.980469 87.261719 463.585938 89.269531 464.121094 91.3125 C 464.503906 92.785156 464.738281 94.292969 465.089844 95.765625 C 465.742188 98.445312 466.429688 101.125 467.101562 103.800781 C 467.5 105.425781 467.851562 107.066406 468.289062 108.671875 C 469.042969 111.484375 469.796875 114.296875 470.632812 117.078125 C 471.6875 120.558594 472.792969 124.042969 473.980469 127.492188 C 475.320312 131.390625 476.777344 135.257812 478.148438 139.160156 C 479.855469 143.980469 481.613281 148.785156 483.207031 153.640625 C 483.875 155.667969 484.210938 157.808594 484.660156 159.902344 C 485.011719 161.542969 485.382812 163.183594 485.648438 164.839844 C 485.832031 166.011719 485.949219 167.203125 485.984375 168.390625 C 486.117188 172.308594 486.300781 176.226562 486.285156 180.144531 C 486.285156 181.785156 485.867188 183.425781 485.648438 185.046875 C 485.632812 185.183594 485.667969 185.332031 485.648438 185.464844 C 485.433594 186.824219 485.214844 188.195312 484.996094 189.550781 C 484.777344 190.875 484.5625 192.214844 484.308594 193.535156 C 483.757812 196.617188 482.835938 199.597656 481.816406 202.542969 C 480.996094 204.886719 480.023438 207.148438 479.035156 209.421875 C 477.464844 213.074219 475.472656 216.472656 473.226562 219.753906 C 471.484375 222.316406 469.492188 224.640625 467.21875 226.699219 C 465.308594 228.441406 463.28125 230.082031 461.242188 231.671875 C 459.601562 232.960938 457.925781 234.25 456.132812 235.304688 C 453.941406 236.613281 451.648438 237.765625 449.304688 238.820312 C 447.496094 239.640625 445.605469 240.277344 443.695312 240.847656 C 440.632812 241.75 437.550781 242.589844 434.4375 243.359375 C 432.796875 243.761719 431.105469 244.144531 429.433594 244.144531 C 428.09375 244.144531 426.851562 244.730469 425.53125 244.546875 C 424.527344 244.414062 423.570312 244.847656 422.632812 244.832031 C 420.359375 244.796875 418.132812 245.132812 415.886719 245.199219 C 413.542969 245.265625 411.183594 245.367188 408.855469 245.167969 C 406.664062 244.984375 404.417969 245.132812 402.261719 244.546875 C 402.226562 244.546875 402.210938 244.546875 402.175781 244.546875 C 400.433594 244.429688 398.695312 244.363281 396.953125 244.195312 C 395.328125 244.027344 393.738281 243.761719 392.113281 243.542969 C 391.109375 243.410156 390.089844 243.34375 389.066406 243.191406 C 387.679688 242.992188 386.289062 242.738281 384.914062 242.539062 C 384.046875 242.40625 383.175781 242.289062 382.289062 242.203125 C 380.863281 242.070312 379.40625 242.054688 377.984375 241.851562 C 375.238281 241.449219 372.492188 241.5 369.75 241.550781 C 367.789062 241.585938 365.8125 241.667969 363.855469 241.902344 C 361.8125 242.136719 359.785156 242.589844 357.746094 242.875 C 353.292969 243.476562 348.957031 244.5625 344.71875 246.085938 C 342.492188 246.890625 340.28125 247.777344 338.125 248.765625 C 334.742188 250.324219 331.410156 251.945312 328.078125 253.621094 C 326.40625 254.457031 324.832031 255.480469 323.191406 256.367188 C 321.296875 257.40625 319.421875 258.425781 317.496094 259.378906 C 314.117188 261.054688 310.71875 262.644531 307.21875 264.050781 C 304.039062 265.324219 300.757812 266.144531 297.457031 266.964844 C 296.285156 267.25 295.03125 267.28125 293.808594 267.316406 C 291.96875 267.367188 290.125 267.300781 288.285156 267.332031 C 286.226562 267.367188 284.214844 267.082031 282.191406 266.695312 C 278.960938 266.058594 275.746094 265.375 272.628906 264.300781 C 270.621094 263.617188 268.644531 262.894531 266.6875 262.09375 C 264.777344 261.238281 262.785156 260.269531 260.710938 259.3125 Z M 260.710938 259.3125 " fill-opacity="1" fill-rule="nonzero"/></g><path fill="#ffa60078" d="M 230.101562 255.652344 C 235.1875 255.652344 239.324219 259.789062 239.324219 264.875 C 239.324219 269.960938 235.1875 274.101562 230.101562 274.101562 C 225.015625 274.101562 220.875 269.960938 220.875 264.875 C 220.875 259.789062 225.015625 255.652344 230.101562 255.652344 Z M 230.101562 278.097656 C 237.394531 278.097656 243.324219 272.167969 243.324219 264.875 C 243.324219 257.585938 237.394531 251.652344 230.101562 251.652344 C 222.8125 251.652344 216.878906 257.585938 216.878906 264.875 C 216.878906 272.167969 222.8125 278.097656 230.101562 278.097656 " fill-opacity="1" fill-rule="nonzero"/><g clip-path="url(#33890b0fb3)"><path fill="#ffa600" d="M 375.152344 166.152344 L 380.148438 166.152344 L 380.148438 264.953125 L 375.152344 264.953125 Z M 375.152344 153.863281 L 380.148438 153.863281 L 380.148438 162.152344 L 375.152344 162.152344 Z M 354.089844 129.039062 C 342.472656 129.039062 333.027344 138.488281 333.027344 150.101562 L 333.027344 150.902344 C 333.027344 156.757812 334.578125 162.53125 337.511719 167.597656 C 346.195312 182.601562 343.703125 201.632812 331.445312 213.890625 L 321.222656 224.117188 L 317.6875 220.578125 L 327.910156 210.359375 C 338.570312 199.699219 340.738281 183.144531 333.183594 170.101562 C 329.8125 164.273438 328.027344 157.636719 328.027344 150.902344 L 328.027344 150.101562 C 328.027344 135.730469 339.71875 124.039062 354.089844 124.039062 C 368.378906 124.039062 380.015625 135.601562 380.144531 149.863281 L 375.144531 149.863281 C 375.015625 138.359375 365.621094 129.039062 354.089844 129.039062 Z M 230.101562 235.996094 C 246.023438 235.996094 258.980469 248.953125 258.980469 264.875 C 258.980469 280.796875 246.023438 293.753906 230.101562 293.753906 C 214.179688 293.753906 201.226562 280.796875 201.226562 264.875 C 201.226562 248.953125 214.179688 235.996094 230.101562 235.996094 Z M 229.382812 211.207031 L 257.6875 211.207031 C 290.355469 211.207031 318.015625 233.039062 326.855469 262.875 L 264.914062 262.875 C 263.875 244.574219 248.660156 230 230.101562 230 C 221.859375 230 214.285156 232.882812 208.308594 237.679688 L 208.308594 232.28125 C 208.308594 220.660156 217.761719 211.207031 229.382812 211.207031 Z M 253.039062 205.210938 L 232.382812 205.210938 L 232.382812 201.242188 L 253.039062 201.242188 Z M 319.398438 293.753906 L 249.632812 293.753906 C 258.367188 287.828125 264.28125 278.046875 264.914062 266.875 L 327.917969 266.875 C 329.160156 272.164062 329.816406 277.675781 329.816406 283.335938 C 329.816406 289.082031 325.140625 293.753906 319.398438 293.753906 Z M 320.894531 232.269531 L 318.640625 234.523438 C 315.277344 230.335938 311.503906 226.496094 307.363281 223.078125 L 309.535156 220.910156 Z M 373.332031 270.949219 L 381.96875 270.949219 L 381.96875 279.585938 L 373.332031 279.585938 Z M 407.734375 293.753906 L 347.566406 293.753906 L 347.566406 285.582031 L 407.734375 285.582031 Z M 410.734375 279.585938 L 387.964844 279.585938 L 387.964844 267.949219 C 387.964844 266.292969 386.625 264.953125 384.96875 264.953125 L 384.148438 264.953125 L 384.148438 149.863281 L 384.140625 149.863281 C 384.085938 142.703125 381.519531 136.132812 377.277344 130.992188 C 376.355469 129.878906 375.355469 128.832031 374.289062 127.859375 C 373.578125 127.210938 372.832031 126.601562 372.0625 126.023438 C 371.289062 125.445312 370.488281 124.902344 369.664062 124.398438 C 369.25 124.148438 368.828125 123.90625 368.402344 123.675781 C 364.144531 121.359375 359.265625 120.042969 354.089844 120.042969 C 348.910156 120.042969 344.03125 121.359375 339.773438 123.675781 C 339.347656 123.90625 338.925781 124.148438 338.515625 124.398438 C 337.6875 124.902344 336.886719 125.445312 336.113281 126.023438 C 335.34375 126.601562 334.601562 127.210938 333.886719 127.859375 C 332.820312 128.832031 331.820312 129.878906 330.902344 130.992188 C 326.609375 136.191406 324.03125 142.847656 324.03125 150.101562 L 324.03125 150.902344 C 324.03125 158.339844 326 165.671875 329.726562 172.105469 C 330.972656 174.257812 331.914062 176.519531 332.566406 178.832031 C 332.785156 179.605469 332.96875 180.382812 333.121094 181.164062 C 334.265625 187.027344 333.585938 193.113281 331.199219 198.570312 C 330.882812 199.296875 330.535156 200.015625 330.15625 200.71875 C 329.964844 201.070312 329.769531 201.417969 329.5625 201.761719 C 328.949219 202.796875 328.269531 203.800781 327.523438 204.761719 C 326.777344 205.726562 325.964844 206.652344 325.082031 207.53125 L 314.859375 217.753906 L 311.65625 214.546875 C 311.09375 213.984375 310.328125 213.667969 309.535156 213.667969 C 308.738281 213.667969 307.976562 213.984375 307.414062 214.546875 L 302.550781 219.410156 C 290.1875 210.707031 275.203125 205.503906 259.039062 205.226562 L 259.039062 198.242188 C 259.039062 196.585938 257.695312 195.246094 256.039062 195.246094 L 229.382812 195.246094 C 227.726562 195.246094 226.382812 196.585938 226.382812 198.242188 L 226.382812 205.378906 C 212.863281 206.875 202.308594 218.367188 202.308594 232.28125 L 202.308594 243.835938 C 197.867188 249.6875 195.226562 256.976562 195.226562 264.875 C 195.226562 284.105469 210.871094 299.75 230.101562 299.75 L 319.398438 299.75 C 328.449219 299.75 335.8125 292.386719 335.8125 283.335938 C 335.8125 267.054688 330.804688 251.921875 322.25 239.390625 L 327.253906 234.386719 C 328.425781 233.21875 328.425781 231.320312 327.253906 230.148438 L 324.050781 226.941406 L 334.273438 216.71875 C 347.808594 203.183594 350.5625 182.160156 340.96875 165.59375 C 338.390625 161.136719 337.023438 156.054688 337.023438 150.902344 L 337.023438 150.101562 C 337.023438 149.511719 337.054688 148.933594 337.113281 148.359375 C 337.199219 147.5 337.351562 146.65625 337.5625 145.839844 C 337.632812 145.570312 337.710938 145.300781 337.792969 145.03125 C 338.042969 144.230469 338.351562 143.453125 338.710938 142.710938 C 338.949219 142.210938 339.214844 141.726562 339.5 141.257812 C 339.785156 140.789062 340.09375 140.335938 340.417969 139.898438 C 340.746094 139.460938 341.09375 139.039062 341.460938 138.632812 C 342.382812 137.621094 343.421875 136.722656 344.554688 135.957031 C 347.277344 134.113281 350.558594 133.035156 354.089844 133.035156 C 357.617188 133.035156 360.898438 134.113281 363.621094 135.957031 C 364.757812 136.722656 365.796875 137.621094 366.714844 138.632812 C 367.082031 139.039062 367.433594 139.460938 367.757812 139.898438 C 368.085938 140.335938 368.394531 140.789062 368.679688 141.257812 C 368.964844 141.726562 369.226562 142.210938 369.46875 142.710938 C 369.828125 143.453125 370.136719 144.230469 370.386719 145.03125 C 370.46875 145.300781 370.542969 145.570312 370.617188 145.839844 C 370.824219 146.65625 370.976562 147.5 371.066406 148.359375 C 371.125 148.933594 371.152344 149.511719 371.152344 150.101562 L 371.152344 264.953125 L 370.332031 264.953125 C 368.675781 264.953125 367.335938 266.292969 367.335938 267.949219 L 367.335938 279.585938 L 344.566406 279.585938 C 342.910156 279.585938 341.566406 280.929688 341.566406 282.585938 L 341.566406 296.753906 C 341.566406 298.40625 342.910156 299.75 344.566406 299.75 L 410.734375 299.75 C 412.390625 299.75 413.734375 298.40625 413.734375 296.753906 L 413.734375 282.585938 C 413.734375 280.929688 412.390625 279.585938 410.734375 279.585938 " fill-opacity="1" fill-rule="nonzero"/></g></svg>