<svg xmlns="http://www.w3.org/2000/svg" xmlns:xlink="http://www.w3.org/1999/xlink" width="900" zoomAndPan="magnify" viewBox="0 0 675 449.999984" height="600" preserveAspectRatio="xMidYMid meet" version="1.0"><defs><clipPath id="39db38d0e7"><path d="M 299.1875 58.726562 L 563.9375 58.726562 L 563.9375 281.476562 L 299.1875 281.476562 Z M 299.1875 58.726562 " clip-rule="nonzero"/></clipPath><clipPath id="1d11212ec6"><path d="M 230.539062 118 L 427 118 L 427 322 L 230.539062 322 Z M 230.539062 118 " clip-rule="nonzero"/></clipPath></defs><g clip-path="url(#39db38d0e7)"><path fill="#fdefd7" d="M 337.996094 273.042969 C 335.917969 272.003906 333.828125 271.082031 331.851562 269.960938 C 329.425781 268.589844 326.996094 267.164062 324.71875 265.558594 C 322.675781 264.117188 320.800781 262.425781 318.910156 260.785156 C 317.804688 259.816406 316.75 258.761719 315.78125 257.65625 C 314.390625 256.046875 313.015625 254.425781 311.761719 252.699219 C 310.488281 250.941406 309.300781 249.101562 308.195312 247.226562 C 307.191406 245.535156 306.269531 243.777344 305.46875 242.003906 C 304.128906 239.039062 302.753906 236.074219 301.714844 233.011719 C 300.894531 230.617188 300.5625 228.074219 300.007812 225.597656 C 299.1875 221.847656 299.289062 218.046875 299.355469 214.246094 C 299.390625 212.921875 299.65625 211.601562 299.859375 210.277344 C 299.992188 209.421875 300.160156 208.570312 300.34375 207.714844 C 300.613281 206.425781 300.863281 205.15625 301.179688 203.882812 C 301.648438 202.039062 302.152344 200.214844 302.6875 198.390625 C 302.957031 197.503906 303.339844 196.648438 303.675781 195.796875 C 304.695312 193.132812 305.867188 190.539062 307.410156 188.128906 C 308.613281 186.238281 309.71875 184.277344 310.976562 182.417969 C 312.28125 180.496094 313.652344 178.585938 315.125 176.777344 C 316.648438 174.886719 318.257812 173.011719 319.964844 171.285156 C 320.9375 170.316406 321.804688 169.277344 322.675781 168.238281 C 323.765625 166.933594 325.15625 165.878906 326.34375 164.65625 C 328.050781 162.898438 329.808594 161.175781 331.347656 159.28125 C 333.089844 157.15625 334.746094 154.929688 336.1875 152.585938 C 337.375 150.644531 338.261719 148.484375 339.132812 146.375 C 339.871094 144.617188 340.421875 142.777344 341.007812 140.949219 C 341.242188 140.199219 341.34375 139.410156 341.496094 138.640625 C 341.679688 137.6875 341.847656 136.714844 342.011719 135.761719 C 342.179688 134.789062 342.316406 133.820312 342.5 132.863281 C 342.699219 131.777344 342.917969 130.707031 343.136719 129.617188 C 343.152344 129.566406 343.152344 129.515625 343.152344 129.464844 C 343.269531 127.894531 343.335938 126.320312 343.503906 124.746094 C 343.6875 122.886719 343.9375 121.027344 344.15625 119.171875 C 344.273438 118.214844 344.324219 117.246094 344.507812 116.289062 C 344.859375 114.414062 345.128906 112.492188 345.714844 110.683594 C 346.433594 108.488281 347.285156 106.296875 348.390625 104.269531 C 349.464844 102.3125 350.835938 100.488281 352.257812 98.761719 C 354.300781 96.285156 356.863281 94.292969 359.375 92.316406 C 361.097656 90.960938 363.023438 89.839844 364.882812 88.667969 C 366.136719 87.878906 367.445312 87.195312 368.75 86.472656 C 370.15625 85.703125 371.511719 84.785156 373.003906 84.199219 C 375.730469 83.125 378.542969 82.203125 381.339844 81.285156 C 382.894531 80.78125 384.46875 80.3125 386.058594 79.976562 C 388.070312 79.558594 390.128906 79.292969 392.15625 78.921875 C 393.074219 78.757812 393.996094 78.503906 394.917969 78.304688 C 395 78.289062 395.066406 78.269531 395.152344 78.269531 C 396.941406 78.152344 398.734375 78.035156 400.542969 77.9375 C 402.417969 77.820312 404.308594 77.585938 406.183594 77.632812 C 408.160156 77.703125 410.132812 78.054688 412.09375 78.269531 C 412.394531 78.304688 412.710938 78.289062 413.015625 78.269531 C 415.039062 78.1875 416.964844 78.65625 418.890625 79.226562 C 420.332031 79.644531 421.871094 79.742188 423.359375 79.945312 C 425.253906 80.195312 427.128906 80.414062 429.019531 80.613281 C 429.519531 80.664062 430.023438 80.613281 430.527344 80.613281 C 432.25 80.613281 433.992188 80.679688 435.714844 80.597656 C 436.953125 80.53125 438.175781 80.230469 439.398438 80.027344 C 439.5 80.011719 439.601562 79.945312 439.699219 79.960938 C 441.15625 80.046875 442.53125 79.527344 443.953125 79.34375 C 445.777344 79.109375 447.484375 78.621094 449.175781 77.96875 C 450.882812 77.300781 452.589844 76.628906 454.265625 75.894531 C 456.125 75.074219 457.980469 74.1875 459.789062 73.265625 C 461.398438 72.429688 462.902344 71.375 464.5625 70.621094 C 466.871094 69.566406 469.300781 68.726562 471.644531 67.722656 C 473.082031 67.105469 474.472656 66.351562 475.894531 65.664062 C 476.480469 65.378906 477.066406 65.144531 477.667969 64.894531 C 480.097656 63.90625 482.507812 62.835938 484.984375 61.949219 C 487.261719 61.144531 489.554688 60.359375 491.917969 59.921875 C 494.695312 59.402344 497.476562 58.785156 500.371094 58.832031 C 502.28125 58.867188 504.121094 59.167969 505.945312 59.570312 C 507.90625 60.023438 509.796875 60.742188 511.722656 61.378906 C 513.949219 62.117188 515.992188 63.269531 517.949219 64.507812 C 520.125 65.898438 522.085938 67.523438 524.058594 69.195312 C 527.242188 71.875 529.550781 75.191406 531.628906 78.707031 C 532.800781 80.679688 533.871094 82.742188 534.808594 84.832031 C 535.980469 87.480469 537.035156 90.15625 537.988281 92.886719 C 538.675781 94.863281 539.128906 96.9375 539.695312 98.964844 C 540.265625 100.988281 540.867188 102.996094 541.40625 105.039062 C 541.789062 106.515625 542.023438 108.019531 542.375 109.492188 C 543.027344 112.171875 543.714844 114.851562 544.382812 117.53125 C 544.785156 119.152344 545.136719 120.792969 545.574219 122.402344 C 546.328125 125.214844 547.078125 128.027344 547.917969 130.804688 C 548.972656 134.289062 550.078125 137.769531 551.265625 141.21875 C 552.605469 145.121094 554.0625 148.988281 555.433594 152.886719 C 557.140625 157.710938 558.898438 162.515625 560.488281 167.367188 C 561.160156 169.394531 561.496094 171.539062 561.945312 173.628906 C 562.296875 175.269531 562.667969 176.910156 562.933594 178.570312 C 563.117188 179.742188 563.234375 180.929688 563.269531 182.117188 C 563.402344 186.035156 563.585938 189.953125 563.570312 193.871094 C 563.570312 195.511719 563.152344 197.152344 562.933594 198.777344 C 562.917969 198.910156 562.949219 199.0625 562.933594 199.195312 C 562.714844 200.550781 562.5 201.921875 562.28125 203.28125 C 562.0625 204.601562 561.847656 205.941406 561.59375 207.265625 C 561.042969 210.34375 560.121094 213.324219 559.101562 216.269531 C 558.28125 218.613281 557.308594 220.875 556.320312 223.152344 C 554.746094 226.800781 552.753906 230.199219 550.511719 233.480469 C 548.769531 236.042969 546.777344 238.371094 544.5 240.429688 C 542.59375 242.171875 540.566406 243.8125 538.523438 245.402344 C 536.882812 246.691406 535.210938 247.980469 533.417969 249.035156 C 531.226562 250.339844 528.933594 251.496094 526.589844 252.550781 C 524.78125 253.371094 522.886719 254.007812 520.980469 254.574219 C 517.917969 255.480469 514.835938 256.316406 511.722656 257.085938 C 510.082031 257.488281 508.390625 257.875 506.714844 257.875 C 505.378906 257.875 504.136719 258.460938 502.816406 258.273438 C 501.8125 258.140625 500.855469 258.578125 499.917969 258.558594 C 497.640625 258.527344 495.414062 258.859375 493.171875 258.929688 C 490.828125 258.996094 488.46875 259.09375 486.140625 258.894531 C 483.949219 258.710938 481.703125 258.859375 479.542969 258.273438 C 479.511719 258.273438 479.496094 258.273438 479.460938 258.273438 C 477.71875 258.15625 475.980469 258.089844 474.238281 257.921875 C 472.613281 257.757812 471.023438 257.488281 469.398438 257.269531 C 468.394531 257.136719 467.375 257.070312 466.351562 256.917969 C 464.964844 256.71875 463.574219 256.46875 462.199219 256.265625 C 461.332031 256.132812 460.460938 256.015625 459.570312 255.929688 C 458.148438 255.796875 456.691406 255.78125 455.269531 255.578125 C 452.523438 255.179688 449.777344 255.226562 447.03125 255.277344 C 445.074219 255.3125 443.097656 255.394531 441.140625 255.628906 C 439.097656 255.863281 437.070312 256.316406 435.027344 256.601562 C 430.574219 257.203125 426.238281 258.292969 422.003906 259.816406 C 419.777344 260.617188 417.566406 261.507812 415.40625 262.496094 C 412.027344 264.050781 408.695312 265.675781 405.363281 267.347656 C 403.6875 268.1875 402.117188 269.207031 400.476562 270.09375 C 398.582031 271.132812 396.707031 272.152344 394.78125 273.109375 C 391.402344 274.78125 388.003906 276.371094 384.503906 277.777344 C 381.324219 279.050781 378.042969 279.871094 374.742188 280.691406 C 373.570312 280.976562 372.316406 281.011719 371.09375 281.042969 C 369.25 281.09375 367.410156 281.027344 365.570312 281.058594 C 363.507812 281.09375 361.5 280.808594 359.476562 280.425781 C 356.242188 279.789062 353.03125 279.101562 349.914062 278.03125 C 347.90625 277.34375 345.929688 276.625 343.972656 275.820312 C 342.0625 274.964844 340.070312 273.996094 337.996094 273.042969 Z M 337.996094 273.042969 " fill-opacity="1" fill-rule="nonzero"/></g><g clip-path="url(#1d11212ec6)"><path fill="#ffa600" d="M 364.054688 321.695312 L 233.289062 321.695312 C 231.714844 321.695312 230.441406 320.417969 230.441406 318.847656 L 230.441406 121.113281 C 230.441406 119.523438 231.714844 118.265625 233.289062 118.265625 L 423.589844 118.265625 C 425.160156 118.265625 426.4375 119.523438 426.4375 121.113281 L 426.4375 196.570312 C 426.4375 198.144531 425.160156 199.421875 423.589844 199.421875 C 422.015625 199.421875 420.738281 198.144531 420.738281 196.570312 L 420.738281 123.960938 L 236.136719 123.960938 L 236.136719 315.996094 L 364.054688 315.996094 C 365.625 315.996094 366.902344 317.273438 366.902344 318.847656 C 366.902344 320.417969 365.625 321.695312 364.054688 321.695312 " fill-opacity="1" fill-rule="nonzero"/></g><path fill="#ffa600" d="M 364.054688 302.003906 L 338.441406 302.003906 C 336.867188 302.003906 335.589844 300.726562 335.589844 299.15625 C 335.589844 297.582031 336.867188 296.304688 338.441406 296.304688 L 364.054688 296.304688 C 365.625 296.304688 366.902344 297.582031 366.902344 299.15625 C 366.902344 300.726562 365.625 302.003906 364.054688 302.003906 " fill-opacity="1" fill-rule="nonzero"/><path fill="#ffa600" d="M 403.898438 199.421875 C 402.324219 199.421875 401.046875 198.144531 401.046875 196.570312 L 401.046875 143.609375 L 338.441406 143.609375 C 336.867188 143.609375 335.589844 142.332031 335.589844 140.761719 C 335.589844 139.1875 336.867188 137.910156 338.441406 137.910156 L 403.898438 137.910156 C 405.46875 137.910156 406.746094 139.1875 406.746094 140.761719 L 406.746094 196.570312 C 406.746094 198.144531 405.46875 199.421875 403.898438 199.421875 " fill-opacity="1" fill-rule="nonzero"/><path fill="#ffa600" d="M 318.421875 302.019531 L 252.964844 302.019531 C 251.394531 302.019531 250.117188 300.742188 250.117188 299.171875 L 250.117188 140.773438 C 250.117188 139.203125 251.394531 137.925781 252.964844 137.925781 L 318.421875 137.925781 C 319.996094 137.925781 321.269531 139.203125 321.269531 140.773438 C 321.269531 142.347656 319.996094 143.625 318.421875 143.625 L 255.816406 143.625 L 255.816406 296.320312 L 318.421875 296.320312 C 319.996094 296.320312 321.269531 297.597656 321.269531 299.171875 C 321.269531 300.742188 319.996094 302.019531 318.421875 302.019531 " fill-opacity="1" fill-rule="nonzero"/><path fill="#ffa600" d="M 318.421875 302.019531 C 316.847656 302.019531 315.574219 300.742188 315.574219 299.171875 L 315.574219 140.773438 C 315.574219 139.203125 316.847656 137.925781 318.421875 137.925781 C 319.996094 137.925781 321.269531 139.203125 321.269531 140.773438 L 321.269531 299.171875 C 321.269531 300.742188 319.996094 302.019531 318.421875 302.019531 " fill-opacity="1" fill-rule="nonzero"/><path fill="#ffa600" d="M 338.425781 302.019531 C 336.851562 302.019531 335.578125 300.742188 335.578125 299.171875 L 335.578125 140.773438 C 335.578125 139.203125 336.851562 137.925781 338.425781 137.925781 C 340 137.925781 341.273438 139.203125 341.273438 140.773438 L 341.273438 299.171875 C 341.273438 300.742188 340 302.019531 338.425781 302.019531 " fill-opacity="1" fill-rule="nonzero"/><path fill="#ffa600" d="M 267.359375 184.996094 C 266.632812 184.996094 265.90625 184.714844 265.355469 184.164062 C 264.242188 183.050781 264.242188 181.242188 265.355469 180.128906 L 291.398438 154.085938 C 292.511719 152.972656 294.324219 152.972656 295.421875 154.085938 C 296.535156 155.199219 296.535156 156.996094 295.421875 158.121094 L 269.378906 184.164062 C 268.828125 184.714844 268.085938 184.996094 267.359375 184.996094 " fill-opacity="1" fill-rule="nonzero"/><path fill="#ffa600" d="M 277.96875 196.347656 C 277.242188 196.347656 276.515625 196.066406 275.953125 195.515625 C 274.839844 194.40625 274.839844 192.59375 275.953125 191.480469 L 284.796875 182.636719 C 285.910156 181.523438 287.71875 181.523438 288.832031 182.636719 C 289.929688 183.765625 289.929688 185.558594 288.832031 186.671875 L 279.988281 195.515625 C 279.425781 196.066406 278.699219 196.347656 277.96875 196.347656 " fill-opacity="1" fill-rule="nonzero"/><path fill="#ffa600" d="M 295.96875 178.347656 C 295.242188 178.347656 294.515625 178.066406 293.953125 177.515625 C 292.839844 176.40625 292.839844 174.59375 293.953125 173.480469 L 302.011719 165.4375 C 303.121094 164.324219 304.917969 164.324219 306.03125 165.4375 C 307.144531 166.550781 307.144531 168.347656 306.03125 169.460938 L 297.988281 177.515625 C 297.425781 178.066406 296.699219 178.347656 295.96875 178.347656 " fill-opacity="1" fill-rule="nonzero"/><path fill="#ffa600" d="M 405.675781 238.640625 C 404.59375 238.640625 403.570312 238.03125 403.082031 236.992188 C 398.953125 228.089844 384.621094 227.734375 384.488281 227.734375 C 382.929688 227.703125 381.683594 226.425781 381.683594 224.882812 L 381.683594 215.550781 C 381.683594 214.035156 382.871094 212.777344 384.367188 212.703125 C 391.28125 212.332031 398.289062 212.226562 405.1875 212.375 L 418.660156 212.703125 C 420.796875 212.703125 422.800781 213.886719 423.8125 215.804688 C 424.789062 217.644531 424.671875 219.855469 423.5 221.589844 C 421.601562 224.394531 419.300781 229.15625 419.167969 235.851562 C 419.136719 237.421875 417.742188 238.640625 416.257812 238.640625 C 414.683594 238.609375 413.4375 237.304688 413.46875 235.730469 C 413.632812 227.644531 416.449219 221.84375 418.78125 218.398438 L 405.054688 218.074219 C 399.175781 217.941406 393.257812 218 387.378906 218.25 L 387.378906 222.242188 C 392.664062 222.851562 403.910156 225.242188 408.257812 234.589844 C 408.914062 236.027344 408.304688 237.71875 406.863281 238.375 C 406.480469 238.550781 406.078125 238.640625 405.675781 238.640625 " fill-opacity="1" fill-rule="nonzero"/><path fill="#ffa600" d="M 403.703125 247.972656 L 418.140625 247.972656 L 418.140625 238.640625 L 403.703125 238.640625 Z M 420.992188 253.671875 L 400.855469 253.671875 C 399.28125 253.671875 398.003906 252.398438 398.003906 250.824219 L 398.003906 235.792969 C 398.003906 234.21875 399.28125 232.941406 400.855469 232.941406 L 420.992188 232.941406 C 422.5625 232.941406 423.839844 234.21875 423.839844 235.792969 L 423.839844 250.824219 C 423.839844 252.398438 422.5625 253.671875 420.992188 253.671875 " fill-opacity="1" fill-rule="nonzero"/><path fill="#ffa600" d="M 423.8125 335.109375 L 393.597656 335.097656 C 389.960938 335.097656 386.742188 332.929688 385.378906 329.589844 C 380.109375 316.664062 383.242188 298.726562 383.9375 295.253906 C 384.425781 292.757812 385.363281 290.414062 386.742188 288.25 C 389.753906 283.558594 399.535156 267.488281 399.117188 257.707031 C 399 255.171875 398.851562 252.871094 398.6875 251.074219 C 398.554688 249.503906 399.710938 248.121094 401.285156 247.988281 C 402.859375 247.855469 404.222656 249.011719 404.355469 250.585938 C 404.535156 252.457031 404.699219 254.832031 404.800781 257.457031 C 405.277344 268.601562 395.691406 284.863281 391.550781 291.320312 C 390.554688 292.878906 389.875 294.570312 389.53125 296.351562 C 387.78125 305.148438 387.039062 318.578125 390.660156 327.4375 C 391.132812 328.625 392.292969 329.398438 393.597656 329.398438 L 423.8125 329.414062 C 425.265625 329.414062 426.542969 328.449219 426.898438 327.082031 C 434.761719 297.046875 421.125 257.117188 418.320312 249.398438 C 417.769531 247.929688 418.527344 246.296875 420.011719 245.75 C 421.480469 245.214844 423.128906 245.972656 423.664062 247.453125 C 426.585938 255.4375 440.710938 296.855469 432.417969 328.523438 C 431.394531 332.394531 427.863281 335.109375 423.8125 335.109375 " fill-opacity="1" fill-rule="nonzero"/><path fill="#ffa600" d="M 380.804688 245.898438 C 379.515625 245.898438 378.34375 245.007812 378.03125 243.6875 C 377.691406 242.15625 378.640625 240.628906 380.183594 240.273438 C 386.28125 238.878906 390.867188 229.292969 392.128906 225.699219 C 392.648438 224.214844 394.265625 223.429688 395.765625 223.949219 C 397.234375 224.46875 398.035156 226.101562 397.5 227.585938 C 397.277344 228.222656 391.875 243.449219 381.445312 245.824219 C 381.238281 245.882812 381.027344 245.898438 380.804688 245.898438 " fill-opacity="1" fill-rule="nonzero"/><path fill="#ffa600" d="M 371.84375 202.34375 C 371.398438 196.246094 368.476562 186.347656 358.148438 185.054688 C 369.351562 182.976562 371.578125 172.945312 371.800781 167.769531 L 371.902344 167.769531 C 371.960938 172.84375 373.566406 182.472656 385.304688 185.054688 C 375.152344 186.71875 372.40625 196.363281 371.902344 202.34375 L 371.84375 202.34375 " fill-opacity="1" fill-rule="nonzero"/><path fill="#ffa600" d="M 285.804688 273.246094 C 285.359375 267.148438 282.453125 257.25 272.109375 255.972656 C 283.3125 253.894531 285.539062 243.863281 285.761719 238.683594 L 285.863281 238.683594 C 285.925781 243.761719 287.527344 253.375 299.28125 255.972656 C 289.128906 257.636719 286.371094 267.265625 285.863281 273.246094 L 285.804688 273.246094 " fill-opacity="1" fill-rule="nonzero"/></svg>